<?xml version="1.0" encoding="iso-8859-1"?>
<!-- Generator: Adobe Illustrator 19.0.0, SVG Export Plug-In . SVG Version: 6.00 Build 0)  -->
<svg version="1.1" id="Capa_1" xmlns="http://www.w3.org/2000/svg" xmlns:xlink="http://www.w3.org/1999/xlink" x="0px" y="0px"
	 viewBox="0 0 512 512" style="enable-background:new 0 0 512 512;" xml:space="preserve">
<g>
	<g>
		<path d="M510.699,269.632l-8.35-18.555H369.231v-29.538h119.827l-22.666-50.368c-2.386-5.3-7.656-8.709-13.469-8.709h-83.692
			v-24.615c0-19.002-15.459-34.461-34.462-34.461H34.462C15.459,103.385,0,118.844,0,137.846v196.923
			c0,19.002,15.459,34.462,34.462,34.462h31.602c6.446,22.702,27.35,39.385,52.09,39.385c24.74,0,45.643-16.682,52.09-39.385
			h132.128c6.446,22.702,27.35,39.385,52.09,39.385s45.643-16.682,52.09-39.385h70.986c19.002,0,34.462-15.459,34.462-34.462
			v-59.077C512,273.603,511.557,271.536,510.699,269.632z M81.231,275.692c0,8.157-6.613,14.769-14.769,14.769
			s-14.769-6.613-14.769-14.769v-78.769c0-8.157,6.613-14.769,14.769-14.769H96c8.157,0,14.769,6.613,14.769,14.769
			S104.157,211.692,96,211.692H81.231v9.846H96c8.157,0,14.769,6.613,14.769,14.769S104.157,251.077,96,251.077H81.231V275.692z
			 M118.154,379.077c-13.573,0-24.615-11.042-24.615-24.615s11.042-24.615,24.615-24.615c13.573,0,24.615,11.042,24.615,24.615
			S131.727,379.077,118.154,379.077z M176.738,266.831c4.895,6.525,3.571,15.782-2.954,20.677c-2.656,1.992-5.767,2.955-8.85,2.955
			c-4.491,0-8.925-2.039-11.827-5.909l-3.55-4.733c-1.787,6.145-7.451,10.641-14.173,10.641c-8.157,0-14.769-6.613-14.769-14.769
			v-78.769c0-8.157,6.613-14.769,14.769-14.769h9.846c19.002,0,34.462,15.459,34.462,34.461c0,13.02-7.259,24.373-17.94,30.234
			L176.738,266.831z M233.846,221.538c8.157,0,14.769,6.613,14.769,14.769s-6.613,14.769-14.769,14.769h-14.769v9.846h14.769
			c8.157,0,14.769,6.613,14.769,14.769s-6.613,14.769-14.769,14.769h-29.538c-8.157,0-14.769-6.613-14.769-14.769v-78.769
			c0-8.157,6.613-14.769,14.769-14.769h29.538c8.157,0,14.769,6.613,14.769,14.769s-6.613,14.769-14.769,14.769h-14.769v9.846
			H233.846z M302.769,221.538c8.157,0,14.769,6.613,14.769,14.769s-6.613,14.769-14.769,14.769H288v9.846h14.769
			c8.157,0,14.769,6.613,14.769,14.769s-6.613,14.769-14.769,14.769h-29.538c-8.157,0-14.769-6.613-14.769-14.769v-78.769
			c0-8.157,6.613-14.769,14.769-14.769h29.538c8.157,0,14.769,6.613,14.769,14.769s-6.613,14.769-14.769,14.769H288v9.846H302.769z
			 M354.462,379.077c-13.573,0-24.615-11.042-24.615-24.615s11.042-24.615,24.615-24.615s24.615,11.042,24.615,24.615
			S368.034,379.077,354.462,379.077z"/>
	</g>
</g>
<g>
</g>
<g>
</g>
<g>
</g>
<g>
</g>
<g>
</g>
<g>
</g>
<g>
</g>
<g>
</g>
<g>
</g>
<g>
</g>
<g>
</g>
<g>
</g>
<g>
</g>
<g>
</g>
<g>
</g>
</svg>
