<?xml version="1.0" encoding="utf-8"?>
<!-- Generator: Adobe Illustrator 17.0.0, SVG Export Plug-In . SVG Version: 6.00 Build 0)  -->
<!DOCTYPE svg PUBLIC "-//W3C//DTD SVG 1.1//EN" "http://www.w3.org/Graphics/SVG/1.1/DTD/svg11.dtd">
<svg version="1.1" id="Calque_1" xmlns="http://www.w3.org/2000/svg" xmlns:xlink="http://www.w3.org/1999/xlink" x="0px" y="0px"
	 width="960px" height="560px" viewBox="0 0 960 560" style="enable-background:new 0 0 960 560;" xml:space="preserve">
<g>
	<g>
		<path style="fill:#FFFFFF;" d="M960,6.54v547.12c0,3.6-3.35,6.54-7.47,6.54H7.47c-4.12,0-7.47-2.93-7.47-6.54V6.54
			C0,2.93,3.35,0,7.47,0h945.07C956.65,0,960,2.93,960,6.54z"/>
		<g>
			<defs>
				<path id="SVGID_1_" d="M960,6.54v547.12c0,3.6-3.35,6.54-7.47,6.54H7.47c-4.12,0-7.47-2.93-7.47-6.54V6.54C0,2.93,3.35,0,7.47,0
					h945.07C956.65,0,960,2.93,960,6.54z"/>
			</defs>
			<clipPath id="SVGID_2_">
				<use xlink:href="#SVGID_1_"  style="overflow:visible;"/>
			</clipPath>
			
				<linearGradient id="SVGID_3_" gradientUnits="userSpaceOnUse" x1="398.7573" y1="-49.2036" x2="494.2063" y2="-253.7371" gradientTransform="matrix(-0.4813 -0.8766 -0.8766 0.4813 1073.4521 645.1134)">
				<stop  offset="0" style="stop-color:#F59E26"/>
				<stop  offset="1" style="stop-color:#EFBE3D"/>
			</linearGradient>
			<path style="clip-path:url(#SVGID_2_);fill:url(#SVGID_3_);" d="M1260.46,645.88c127.26-16.63,132.6-105.41,92.19-154.78
				c-57.25-69.95-109.52-58.56-29.66-173.77c27.11-39.12,37.54-89.06,17-132.25c-14.77-31.07-45.32-56.54-82.21-65.99
				c-20.53-5.26-42.23-5.64-63.25-9.12c-21.01-3.48-42.61-10.92-54.86-26.27c-11.8-14.78-12.79-34.23-9.96-52.08
				c6.81-42.95,33.63-82.27,36.03-125.89c2.02-36.76-11.87-78.96-41.53-105.71c-38.82-35.01-99.14-42.54-152.19-45.23
				c-62.22-3.16-124.94,5-184.09,21.9c-75.78,21.65-145.77,57.37-208.06,100.91C524.4-83.64,474.29-38.06,438.81,15.74
				c-56.12,85.08-88.6,223.8,25.74,284.68c137.65,73.3,226.44-53.78,233.91,71.26c4.47,74.82,65.7,191.83,232.69,133.55
				C1098.13,446.95,1077.18,669.82,1260.46,645.88z"/>
			<g style="clip-path:url(#SVGID_2_);">
				<defs>
					<path id="SVGID_4_" d="M1260.46,645.88c127.26-16.63,132.6-105.41,92.19-154.78c-57.25-69.95-109.52-58.56-29.66-173.77
						c27.11-39.12,37.54-89.06,17-132.25c-14.77-31.07-45.32-56.54-82.21-65.99c-20.53-5.26-42.23-5.64-63.25-9.12
						c-21.01-3.48-42.61-10.92-54.86-26.27c-11.8-14.78-12.79-34.23-9.96-52.08c6.81-42.95,33.63-82.27,36.03-125.89
						c2.02-36.76-11.87-78.96-41.53-105.71c-38.82-35.01-99.14-42.54-152.19-45.23c-62.22-3.16-124.94,5-184.09,21.9
						c-75.78,21.65-145.77,57.37-208.06,100.91C524.4-83.64,474.29-38.06,438.81,15.74c-56.12,85.08-88.6,223.8,25.74,284.68
						c137.65,73.3,226.44-53.78,233.91,71.26c4.47,74.82,65.7,191.83,232.69,133.55C1098.13,446.95,1077.18,669.82,1260.46,645.88z"
						/>
				</defs>
				<clipPath id="SVGID_5_">
					<use xlink:href="#SVGID_4_"  style="overflow:visible;"/>
				</clipPath>
				<linearGradient id="SVGID_6_" gradientUnits="userSpaceOnUse" x1="759.1006" y1="256.1874" x2="784.2661" y2="33.4263">
					<stop  offset="0" style="stop-color:#F59E26"/>
					<stop  offset="1" style="stop-color:#EFBE3D"/>
				</linearGradient>
				<path style="clip-path:url(#SVGID_5_);fill:url(#SVGID_6_);" d="M408.45,163.48c2.56-75.37,69.57-85.5,110.27-65.89
					c57.66,27.78,53.14,59.1,134.33,3.52c27.56-18.87,64.67-28.89,99.11-20.35c24.76,6.14,46.53,21.9,56.63,42.62
					c5.62,11.53,7.62,24.13,11.93,36.08c4.3,11.95,11.67,23.93,24.29,29.85c12.16,5.7,27.01,4.73,40.35,1.67
					c32.08-7.36,59.83-26.08,92.76-30.92c27.76-4.08,60.92,0.66,83.57,15.81c29.66,19.82,40.15,54.33,46.4,84.98
					c7.32,35.96,6.08,73.09-2.07,108.86c-10.45,45.81-32.04,89.37-60.19,129.06c-25.06,35.33-55.71,68.1-93.77,93
					c-60.18,39.38-162.97,69.26-218.26,7.54c-66.56-74.3,22.94-136.02-72.63-130.48c-57.19,3.32-150.9-23.06-119.84-124.84
					C572.39,242.2,404.76,272.02,408.45,163.48z"/>
				<linearGradient id="SVGID_7_" gradientUnits="userSpaceOnUse" x1="637.6145" y1="465.2496" x2="829.4705" y2="101.4824">
					<stop  offset="0" style="stop-color:#F59E26"/>
					<stop  offset="1" style="stop-color:#EFBE3D"/>
				</linearGradient>
				<path style="clip-path:url(#SVGID_5_);fill:url(#SVGID_7_);" d="M418.03,174.51c29.7-66.25,92.92-56.57,121.94-27.81
					c41.12,40.75,25.71,67.32,118.07,40.56c31.35-9.08,67.97-7.64,95.46,9.54c19.77,12.36,33.37,32.42,34.81,53.65
					c0.8,11.81-2,23.56-2.53,35.38c-0.52,11.82,1.66,24.52,10.72,33.29c8.73,8.45,22.27,11.73,35.24,12.73
					c31.18,2.4,62.64-6.5,93.67-1.62c26.15,4.11,53.88,17.56,68.51,37.33c19.14,25.88,15.91,59.46,10.31,88.44
					c-6.57,33.99-21.19,66.64-41.44,96.14c-25.95,37.79-60.98,70.47-100.43,97.89c-35.12,24.41-74.28,44.97-117.14,56.49
					c-67.8,18.22-169.99,16.11-196.66-54.13c-32.11-84.56,69.86-114.46-17.06-136.17c-52.01-12.99-125.68-62.55-61.06-144.32
					C535.04,290.15,375.26,269.92,418.03,174.51z"/>
			</g>
		</g>
	</g>
</g>
</svg>
