<?xml version="1.0" encoding="utf-8"?>
<!-- Generator: Adobe Illustrator 17.0.0, SVG Export Plug-In . SVG Version: 6.00 Build 0)  -->
<!DOCTYPE svg PUBLIC "-//W3C//DTD SVG 1.1//EN" "http://www.w3.org/Graphics/SVG/1.1/DTD/svg11.dtd">
<svg version="1.1" id="Calque_1" xmlns="http://www.w3.org/2000/svg" xmlns:xlink="http://www.w3.org/1999/xlink" x="0px" y="0px"
	 width="960px" height="560px" viewBox="0 0 960 560" style="enable-background:new 0 0 960 560;" xml:space="preserve">
<path style="fill:#FFFFFF;" d="M169,145c-78.98,0-143,64.02-143,143s64.02,143,143,143s143-64.02,143-143S247.98,145,169,145z
	 M169,372c-46.39,0-84-37.61-84-84s37.61-84,84-84s84,37.61,84,84S215.39,372,169,372z"/>
<path style="fill:#FFFFFF;" d="M222.98,417.6c0,0-5.98,44.1,76.02,21.79c0,10.89,0,50.32,0,50.32s-129,39.95-141.5-61.22"/>
<path style="fill:#FFFFFF;" d="M219,133.5L234,22c0,0,1.5-10,8.5,0c2,11,8.5,42.5,16,46S275,75.5,312,43.5c6.5-8.5,3.5,4,3.5,6.5
	s-5,49,3,51s40.5-1,56-10c4-0.5,6,4,0,8.5s-85.5,77-85.5,77S241,136.5,219,133.5z"/>
<path style="fill:#FFFFFF;" d="M324,248v126c0,0,6.5,58.5,79.5,57s79-52.5,78.5-68.5s0-114.5,0-114.5h-48v114c0,0,1.5,35-34.5,29
	c-12-0.5-29.5-2.5-27.5-35c-0.5-32.5-0.5-108-0.5-108H324z"/>
<polygon style="fill:#FFFFFF;" points="493,248 620,248 620,282 540,282 540,313 615,313 615,346 541,346 541,388 620,388 620,425 
	493,425 "/>
<polygon style="fill:#FFFFFF;" points="633,248 760,248 760,282 680,282 680,313 755,313 755,346 681,346 681,388 760,388 760,425 
	633,425 "/>
<polygon style="fill:#FFFFFF;" points="773,248 773,425 816,425 816,308 887.5,425 933,425 933,248 888,248 888,344 827.5,248 "/>
<text transform="matrix(1 0 0 1 468.9218 211.1704)" style="font-family:'CooperBlack'; font-size:100;">Necklace</text>
<text transform="matrix(1 0 0 1 324.793 513.6248)" style="font-family:'CooperBlack'; font-size:100;">STORE</text>
</svg>
