<?xml version="1.0" encoding="utf-8"?>
<!-- Generator: Adobe Illustrator 17.0.0, SVG Export Plug-In . SVG Version: 6.00 Build 0)  -->
<!DOCTYPE svg PUBLIC "-//W3C//DTD SVG 1.1//EN" "http://www.w3.org/Graphics/SVG/1.1/DTD/svg11.dtd">
<svg version="1.1" id="Calque_1" xmlns="http://www.w3.org/2000/svg" xmlns:xlink="http://www.w3.org/1999/xlink" x="0px" y="0px"
	 width="560px" height="560px" viewBox="0 0 560 560" style="enable-background:new 0 0 560 560;" xml:space="preserve">
<g id="XMLID_174_">
	<g id="XMLID_757_">
		<g id="XMLID_756_" style="opacity:0.5;">
			<path id="XMLID_5326_" style="fill:#808080;" d="M503.74,463.03h-21.3v-18.3h-0.77l-15.82-11.86h-0.93
				c5.44-20.74,29.92-54.87,29.92-94.2c-5.39-3.69-13.3-3.91-19.66-5.23c-0.07-0.32-0.35-0.56-0.69-0.56
				c-0.23,0-0.43,0.12-0.56,0.29c-4.51-1.09-8.04-2.94-8.98-7.35h-0.18c-1.67-6.84-15.02-12.18-31.25-12.18
				c-16.22,0-29.58,5.33-31.25,12.18h-0.18c-0.99,4.66-4.87,6.46-9.75,7.53c-0.11-0.27-0.36-0.46-0.67-0.46
				c-0.4,0-0.73,0.32-0.73,0.72c0,0.01,0,0.01,0,0.02c-6.19,1.17-13.61,1.54-18.75,5.05c0,39.33,24.48,73.46,29.92,94.2h-0.92
				l-15.82,11.86h0.77v18.3H361.1v-40.11h-0.67l-24.6-16.81h-9.95c7.2-27.56,39.78-72.95,39.78-125.26
				c-12.9-8.83-36.67-2.72-39.72-17.09h-0.24c-2.15-8.82-18.88-15.74-39.55-16.16c-0.66-0.01-1.31-0.02-1.98-0.02
				c-0.66,0-1.32,0.01-1.98,0.02c-20.66,0.42-37.4,7.34-39.55,16.16h-0.24c-3.05,14.38-26.82,8.26-39.72,17.09
				c0,52.31,32.58,97.7,39.78,125.26h-9.91l-24.61,16.81h-0.67v40.11H163c5.7-23.35,34.03-62.32,34.03-107.29
				c-10.97-7.51-31.18-2.31-33.78-14.53h-0.2c-1.89-7.74-16.97-13.76-35.31-13.76c-18.33,0-33.43,6.03-35.31,13.76h-0.2
				c-0.55,2.57-1.88,4.36-3.73,5.67c-0.36,0.13-0.71,0.34-0.99,0.62c-0.01,0.01-0.01,0.02-0.02,0.02
				c-7.27,4.11-20.77,2.56-29.04,8.22c0,44.98,28.33,83.94,34.03,107.29H64.66L31.6,486.05v17h505.19v-17L503.74,463.03z"/>
			<polygon id="XMLID_5327_" style="fill:#808080;" points="75.08,511.56 75.08,538.32 493.32,538.32 493.32,511.56 493.32,503.04 
				75.08,503.04 			"/>
		</g>
		<g id="XMLID_4341_">
			<g id="XMLID_4677_">
				<rect id="XMLID_4692_" x="29.26" y="483.29" style="fill:#FFAC00;" width="505.19" height="17"/>
				<rect id="XMLID_4691_" x="72.74" y="500.29" style="fill:#F19E00;" width="418.25" height="35.28"/>
				<polygon id="XMLID_4690_" style="fill:#FFC609;" points="501.4,460.28 62.32,460.28 29.26,483.29 534.46,483.29 				"/>
				<rect id="XMLID_4689_" x="72.74" y="500.29" style="fill:#D68300;" width="418.25" height="8.52"/>
			</g>
			<g id="XMLID_4586_">
				
					<ellipse id="XMLID_4676_" style="opacity:0.35;fill:#808080;enable-background:new    ;" cx="431.19" cy="467.73" rx="55.94" ry="7.21"/>
				<g id="XMLID_4587_">
					<rect id="XMLID_4675_" x="383.83" y="441.98" style="fill:#E6E6E6;" width="96.28" height="26.25"/>
					<polygon id="XMLID_4674_" style="fill:#FFFFFF;" points="479.33,441.98 383.06,441.98 398.87,430.12 463.52,430.12 					"/>
					<g id="XMLID_4671_">
						<path id="XMLID_4673_" style="fill:#343434;" d="M431.19,323.05h31.43c2.3,10.82,20.18,6.22,29.89,12.86
							c0,44.24-31,81.93-31,101.34h-30.32h-30.32c0-19.42-31-57.1-31-101.34c9.71-6.64,27.59-2.04,29.89-12.86H431.19z"/>
						<path id="XMLID_4672_" style="fill:#6F6F6F;" d="M462.62,324.5c0,7.53-14.07,13.63-31.43,13.63
							c-17.35,0-31.43-6.1-31.43-13.63c0-7.53,14.07-13.63,31.43-13.63C448.55,310.87,462.62,316.97,462.62,324.5z"/>
					</g>
					<g id="XMLID_4588_">
						<path id="XMLID_4670_" style="fill:#DCDCDC;" d="M430.75,383.78c-17.18,0-42.13-20.62-42.13-52.94c0-0.4,0.32-0.72,0.73-0.72
							c0.4,0,0.72,0.32,0.72,0.72c0,31.43,24.1,51.49,40.68,51.49c16.59,0,40.68-20.06,40.68-51.49c0-0.4,0.33-0.72,0.73-0.72
							c0.4,0,0.72,0.32,0.72,0.72C472.88,363.16,447.93,383.78,430.75,383.78z"/>
						<g id="XMLID_4609_">
							<g id="XMLID_4667_">
								<path id="XMLID_4669_" style="fill:#AFE6FF;" d="M471.63,336.24c-1.4-0.53-2.13-2.01-1.85-3.27
									c0.18-0.65,0.51-1.13,1.07-1.52c0.51-0.36,1.21-0.64,1.95-0.62c0.75,0.02,1.41,0.37,1.87,1.01c0.4,0.6,0.62,1.51,0.39,2.35
									C474.66,335.94,473.03,336.77,471.63,336.24z"/>
								<path id="XMLID_4668_" style="opacity:0.3;fill:#AFE6FF;enable-background:new    ;" d="M472.49,334.95
									c-0.12,0-0.23-0.02-0.35-0.06c-0.72-0.27-1.07-1.04-0.95-1.59c0.08-0.26,0.21-0.46,0.48-0.64c0.34-0.24,0.72-0.37,1.07-0.37
									c0.34,0.01,0.57,0.14,0.75,0.39c0.16,0.23,0.29,0.71,0.18,1.14C473.49,334.62,472.95,334.95,472.49,334.95z"/>
							</g>
							<g id="XMLID_4664_">
								<path id="XMLID_4666_" style="fill:#AFE6FF;" d="M469.02,341.87c-1.32-0.74-1.78-2.36-1.18-3.64
									c0.61-1.27,2.16-1.89,3.55-1.38c1.42,0.52,2.07,2.22,1.35,3.72C472.04,342.07,470.31,342.6,469.02,341.87z"/>
								<path id="XMLID_4665_" style="opacity:0.3;fill:#AFE6FF;enable-background:new    ;" d="M470.26,340.75
									c-0.19,0-0.37-0.05-0.53-0.14c-0.62-0.35-0.88-1.13-0.58-1.76c0.21-0.44,0.69-0.73,1.23-0.73c0.17,0,0.35,0.03,0.52,0.09
									c0.27,0.1,0.48,0.31,0.59,0.6c0.14,0.35,0.12,0.76-0.06,1.14C471.16,340.54,470.65,340.75,470.26,340.75z"/>
							</g>
							<g id="XMLID_4661_">
								<path id="XMLID_4663_" style="fill:#AFE6FF;" d="M465.73,347.14c-1.23-0.87-1.53-2.54-0.76-3.77
									c0.8-1.22,2.4-1.66,3.73-0.92c1.3,0.72,1.74,2.48,0.86,3.83C468.7,347.64,466.94,347.99,465.73,347.14z"/>
								<path id="XMLID_4662_" style="opacity:0.3;fill:#AFE6FF;enable-background:new    ;" d="M467.21,346.15
									c-0.24,0-0.46-0.07-0.65-0.2c-0.59-0.41-0.74-1.21-0.36-1.82c0.24-0.37,0.67-0.6,1.13-0.6c0.23,0,0.46,0.06,0.67,0.18
									c0.27,0.15,0.46,0.4,0.53,0.72c0.09,0.36,0.02,0.74-0.19,1.06C468.08,345.91,467.65,346.15,467.21,346.15z"/>
							</g>
							<g id="XMLID_4658_">
								<path id="XMLID_4660_" style="fill:#AFE6FF;" d="M461.97,352.07c-1.16-0.97-1.31-2.65-0.42-3.83
									c0.91-1.16,2.57-1.45,3.81-0.58c1.22,0.85,1.49,2.63,0.5,3.89C464.89,352.83,463.11,353.03,461.97,352.07z"/>
								<path id="XMLID_4659_" style="opacity:0.3;fill:#AFE6FF;enable-background:new    ;" d="M463.63,351.23
									c-0.19,0-0.48-0.05-0.74-0.26c-0.55-0.46-0.63-1.27-0.2-1.85c0.25-0.31,0.64-0.51,1.06-0.51c0.27,0,0.53,0.08,0.76,0.24
									c0.25,0.18,0.42,0.45,0.47,0.78c0.06,0.36-0.05,0.73-0.28,1.03C464.44,351.03,464.05,351.23,463.63,351.23z"/>
							</g>
							<g id="XMLID_4655_">
								<path id="XMLID_4657_" style="fill:#AFE6FF;" d="M457.82,356.7c-1.07-1.05-1.1-2.75-0.12-3.85
									c0.99-1.09,2.68-1.24,3.84-0.27c1.15,0.95,1.27,2.73,0.19,3.91C460.67,357.68,458.89,357.75,457.82,356.7z"/>
								<path id="XMLID_4656_" style="opacity:0.3;fill:#AFE6FF;enable-background:new    ;" d="M459.65,355.99
									c-0.31,0-0.6-0.12-0.81-0.32c-0.5-0.5-0.53-1.31-0.05-1.85c0.25-0.27,0.61-0.43,0.99-0.43c0.22,0,0.54,0.06,0.85,0.31
									c0.24,0.2,0.38,0.49,0.41,0.81c0.02,0.36-0.1,0.72-0.36,1.01C460.39,355.82,460.03,355.99,459.65,355.99z"/>
							</g>
							<g id="XMLID_4652_">
								<path id="XMLID_4654_" style="fill:#AFE6FF;" d="M453.33,360.97c-0.97-1.13-0.87-2.83,0.2-3.84
									c1.06-1.02,2.78-1.01,3.84,0.03c1.08,1.05,1.03,2.81-0.12,3.92C456.08,362.18,454.31,362.12,453.33,360.97z"/>
								<path id="XMLID_4653_" style="opacity:0.3;fill:#AFE6FF;enable-background:new    ;" d="M455.3,360.42
									c-0.34,0-0.66-0.14-0.87-0.39c-0.46-0.53-0.42-1.36,0.09-1.84c0.25-0.24,0.57-0.36,0.91-0.36c0.36,0,0.69,0.13,0.94,0.38
									c0.28,0.27,0.34,0.6,0.34,0.82c0,0.38-0.16,0.73-0.45,1.02C455.99,360.28,455.65,360.42,455.3,360.42z"/>
							</g>
							<g id="XMLID_4649_">
								<path id="XMLID_4651_" style="fill:#AFE6FF;" d="M448.46,364.83c-0.86-1.22-0.6-2.91,0.55-3.8
									c1.14-0.91,2.84-0.75,3.82,0.37c0.99,1.14,0.8,2.9-0.47,3.9C451.09,366.29,449.33,366.07,448.46,364.83z"/>
								<path id="XMLID_4650_" style="opacity:0.3;fill:#AFE6FF;enable-background:new    ;" d="M450.59,364.48
									c-0.39,0-0.73-0.17-0.94-0.47c-0.41-0.59-0.3-1.4,0.24-1.82c0.3-0.24,0.62-0.29,0.83-0.29c0.39,0,0.77,0.17,1.02,0.46
									c0.2,0.23,0.3,0.54,0.27,0.85c-0.03,0.37-0.23,0.71-0.55,0.96C451.21,364.36,450.9,364.48,450.59,364.48z"/>
							</g>
							<g id="XMLID_4646_">
								<path id="XMLID_4648_" style="fill:#AFE6FF;" d="M443.2,368.12c-0.68-1.32-0.24-2.96,0.98-3.7
									c1.22-0.75,2.88-0.44,3.75,0.78c0.87,1.22,0.49,2.98-0.89,3.84C445.63,369.89,443.9,369.46,443.2,368.12z"/>
								<path id="XMLID_4647_" style="opacity:0.3;fill:#AFE6FF;enable-background:new    ;" d="M445.5,368.03
									c-0.45,0-0.82-0.22-1.01-0.58c-0.33-0.64-0.13-1.44,0.45-1.79c0.21-0.13,0.45-0.2,0.69-0.2c0.44,0,0.87,0.22,1.12,0.58
									c0.18,0.25,0.24,0.56,0.18,0.87c-0.07,0.37-0.3,0.68-0.65,0.89C446.03,367.96,445.76,368.03,445.5,368.03z"/>
							</g>
							<g id="XMLID_4643_">
								<path id="XMLID_4645_" style="fill:#AFE6FF;" d="M437.5,370.56c-0.42-1.42,0.28-2.93,1.56-3.46c1.28-0.54,2.86,0,3.56,1.32
									c0.7,1.33,0.08,3.03-1.46,3.69C439.6,372.75,437.93,372.01,437.5,370.56z"/>
								<path id="XMLID_4644_" style="opacity:0.3;fill:#AFE6FF;enable-background:new    ;" d="M440,370.89
									c-0.54,0-0.98-0.29-1.11-0.75c-0.2-0.69,0.12-1.46,0.72-1.71c0.16-0.07,0.32-0.1,0.49-0.1c0.51,0,1.01,0.3,1.25,0.76
									c0.14,0.26,0.16,0.57,0.05,0.86c-0.13,0.36-0.41,0.64-0.8,0.81C440.41,370.85,440.2,370.89,440,370.89z"/>
							</g>
							<g id="XMLID_4640_">
								<path id="XMLID_4642_" style="fill:#AFE6FF;" d="M431.4,371.63c0.02-1.52,1.04-2.71,2.33-2.94
									c1.29-0.22,2.71,0.64,3.15,2.06c0.45,1.44-0.53,3-2.27,3.3C432.86,374.35,431.39,373.11,431.4,371.63z"/>
								<path id="XMLID_4641_" style="opacity:0.3;fill:#AFE6FF;enable-background:new    ;" d="M434.09,372.64
									c-0.37,0-0.72-0.14-0.96-0.38c-0.1-0.1-0.27-0.32-0.27-0.61c0.01-0.88,0.58-1.44,1.13-1.54c0.04-0.01,0.1-0.01,0.15-0.01
									c0.5,0,1.14,0.38,1.35,1.07c0.09,0.27,0.05,0.56-0.11,0.81c-0.2,0.33-0.56,0.56-1.01,0.64
									C434.27,372.64,434.18,372.64,434.09,372.64z"/>
							</g>
							<g id="XMLID_4637_">
								<path id="XMLID_4639_" style="fill:#AFE6FF;" d="M425.28,370.75c0.44-1.42,1.86-2.28,3.15-2.06
									c1.29,0.22,2.31,1.42,2.33,2.94c0.02,1.48-1.46,2.72-3.2,2.42C425.82,373.75,424.83,372.19,425.28,370.75z"/>
								<path id="XMLID_4638_" style="opacity:0.3;fill:#AFE6FF;enable-background:new    ;" d="M428.07,372.64
									c-0.09,0-0.19-0.01-0.28-0.02c-0.45-0.08-0.81-0.31-1.02-0.64c-0.15-0.25-0.19-0.54-0.11-0.81c0.22-0.7,0.86-1.07,1.36-1.07
									c0.06,0,0.11,0,0.16,0.01c0.54,0.1,1.11,0.65,1.12,1.53c0,0.3-0.17,0.52-0.27,0.62
									C428.8,372.51,428.44,372.64,428.07,372.64z"/>
							</g>
							<g id="XMLID_4634_">
								<path id="XMLID_4636_" style="fill:#AFE6FF;" d="M419.54,368.42c0.7-1.32,2.29-1.86,3.56-1.32
									c1.28,0.53,1.98,2.04,1.56,3.46c-0.43,1.45-2.1,2.19-3.66,1.55C419.45,371.45,418.84,369.75,419.54,368.42z"/>
								<path id="XMLID_4635_" style="opacity:0.3;fill:#AFE6FF;enable-background:new    ;" d="M422.16,370.89
									c-0.2,0-0.41-0.04-0.6-0.13c-0.38-0.16-0.66-0.45-0.79-0.8c-0.1-0.3-0.09-0.6,0.05-0.86c0.24-0.46,0.73-0.76,1.24-0.76
									c0.17,0,0.33,0.03,0.48,0.1c0.62,0.25,0.94,1.02,0.73,1.71C423.14,370.6,422.7,370.89,422.16,370.89z"/>
							</g>
							<g id="XMLID_4631_">
								<path id="XMLID_4633_" style="fill:#AFE6FF;" d="M414.23,365.21c0.87-1.22,2.53-1.53,3.75-0.78
									c1.22,0.74,1.67,2.38,0.98,3.7c-0.7,1.34-2.44,1.77-3.83,0.92C413.74,368.18,413.36,366.43,414.23,365.21z"/>
								<path id="XMLID_4632_" style="opacity:0.3;fill:#AFE6FF;enable-background:new    ;" d="M416.66,368.03
									c-0.27,0-0.54-0.08-0.78-0.23c-0.33-0.21-0.57-0.52-0.64-0.89c-0.06-0.31,0-0.62,0.17-0.87c0.26-0.36,0.68-0.58,1.12-0.58
									c0.24,0,0.48,0.07,0.68,0.19c0.58,0.35,0.79,1.16,0.45,1.8C417.48,367.82,417.11,368.03,416.66,368.03z"/>
							</g>
							<g id="XMLID_4628_">
								<path id="XMLID_4630_" style="fill:#AFE6FF;" d="M409.33,361.4c0.98-1.12,2.68-1.27,3.82-0.37c1.15,0.89,1.4,2.58,0.55,3.8
									c-0.87,1.24-2.62,1.46-3.9,0.47C408.53,364.3,408.34,362.54,409.33,361.4z"/>
								<path id="XMLID_4629_" style="opacity:0.3;fill:#AFE6FF;enable-background:new    ;" d="M411.57,364.47
									c-0.31,0-0.63-0.11-0.89-0.32c-0.3-0.24-0.49-0.58-0.53-0.95c-0.03-0.32,0.07-0.62,0.27-0.85c0.25-0.29,0.63-0.46,1.02-0.46
									c0.21,0,0.52,0.05,0.81,0.28c0.56,0.43,0.67,1.25,0.26,1.83C412.3,364.3,411.96,364.47,411.57,364.47z"/>
							</g>
							<g id="XMLID_4625_">
								<path id="XMLID_4627_" style="fill:#AFE6FF;" d="M404.79,357.17c1.07-1.04,2.78-1.05,3.84-0.03c1.07,1,1.17,2.71,0.2,3.84
									c-0.99,1.14-2.75,1.21-3.92,0.11C403.76,359.98,403.71,358.22,404.79,357.17z"/>
								<path id="XMLID_4626_" style="opacity:0.3;fill:#AFE6FF;enable-background:new    ;" d="M406.86,360.42
									c-0.35,0-0.69-0.14-0.96-0.4c-0.28-0.27-0.44-0.63-0.44-1c0-0.22,0.06-0.55,0.34-0.82c0.25-0.24,0.58-0.38,0.94-0.38
									c0.34,0,0.66,0.13,0.9,0.35c0.52,0.49,0.56,1.32,0.1,1.85C407.52,360.28,407.21,360.42,406.86,360.42z"/>
							</g>
							<g id="XMLID_4622_">
								<path id="XMLID_4624_" style="fill:#AFE6FF;" d="M400.61,352.58c1.16-0.96,2.85-0.82,3.84,0.27c0.98,1.1,0.95,2.8-0.12,3.85
									s-2.85,0.98-3.91-0.21C399.35,355.31,399.46,353.53,400.61,352.58z"/>
								<path id="XMLID_4623_" style="opacity:0.3;fill:#AFE6FF;enable-background:new    ;" d="M402.51,355.99
									c-0.38,0-0.74-0.17-1.01-0.46c-0.27-0.3-0.4-0.66-0.37-1.02c0.02-0.33,0.16-0.62,0.4-0.81c0.31-0.26,0.63-0.31,0.85-0.31
									c0.38,0,0.74,0.16,1,0.44c0.47,0.53,0.45,1.34-0.06,1.84C403.11,355.87,402.82,355.99,402.51,355.99z"/>
							</g>
							<g id="XMLID_4619_">
								<path id="XMLID_4621_" style="fill:#AFE6FF;" d="M396.81,347.67c1.24-0.87,2.9-0.58,3.81,0.58
									c0.88,1.17,0.74,2.85-0.42,3.83c-1.14,0.95-2.92,0.76-3.88-0.52C395.32,350.3,395.59,348.52,396.81,347.67z"/>
								<path id="XMLID_4620_" style="opacity:0.3;fill:#AFE6FF;enable-background:new    ;" d="M398.52,351.23
									c-0.41,0-0.8-0.2-1.06-0.54c-0.25-0.32-0.35-0.69-0.3-1.05c0.05-0.33,0.21-0.6,0.47-0.78c0.23-0.16,0.49-0.24,0.76-0.24
									c0.42,0,0.81,0.2,1.08,0.53c0.42,0.55,0.33,1.36-0.21,1.82C399,351.18,398.72,351.23,398.52,351.23z"/>
							</g>
							<g id="XMLID_4616_">
								<path id="XMLID_4618_" style="fill:#AFE6FF;" d="M393.46,342.44c1.32-0.74,2.93-0.3,3.73,0.92c0.77,1.23,0.48,2.9-0.76,3.77
									c-1.21,0.86-2.97,0.51-3.83-0.86C391.72,344.92,392.16,343.17,393.46,342.44z"/>
								<path id="XMLID_4617_" style="opacity:0.3;fill:#AFE6FF;enable-background:new    ;" d="M394.95,346.15
									c-0.45,0-0.86-0.24-1.12-0.65c-0.22-0.34-0.29-0.72-0.2-1.08c0.08-0.32,0.27-0.57,0.53-0.72c0.21-0.12,0.43-0.18,0.67-0.18
									c0.46,0,0.89,0.23,1.14,0.63c0.36,0.58,0.21,1.38-0.38,1.8C395.41,346.08,395.19,346.15,394.95,346.15z"/>
							</g>
							<g id="XMLID_4613_">
								<path id="XMLID_4615_" style="fill:#AFE6FF;" d="M390.76,336.86c1.4-0.52,2.94,0.1,3.55,1.38c0.6,1.28,0.14,2.9-1.18,3.64
									c-1.3,0.73-3.02,0.2-3.73-1.3C388.7,339.08,389.35,337.38,390.76,336.86z"/>
								<path id="XMLID_4614_" style="opacity:0.3;fill:#AFE6FF;enable-background:new    ;" d="M391.9,340.75
									c-0.39,0-0.9-0.21-1.17-0.79c-0.18-0.38-0.21-0.8-0.06-1.15c0.12-0.28,0.33-0.5,0.6-0.6c0.17-0.06,0.34-0.09,0.52-0.09
									c0.53,0,1.02,0.29,1.23,0.74c0.29,0.63,0.04,1.4-0.58,1.75C392.26,340.7,392.09,340.75,391.9,340.75z"/>
							</g>
							<g id="XMLID_4610_">
								<path id="XMLID_4612_" style="fill:#AFE6FF;" d="M389.35,330.84c0.75-0.02,1.45,0.26,1.96,0.62
									c0.56,0.39,0.89,0.87,1.07,1.52c0.28,1.25-0.44,2.74-1.85,3.27c-1.4,0.53-3.04-0.31-3.44-2.05c-0.23-0.84,0-1.74,0.39-2.35
									C387.94,331.21,388.6,330.86,389.35,330.84z"/>
								<path id="XMLID_4611_" style="opacity:0.3;fill:#AFE6FF;enable-background:new    ;" d="M389.67,334.95
									c-0.46,0-1-0.34-1.17-1.09c-0.13-0.47,0.01-0.95,0.19-1.22c0.16-0.23,0.39-0.35,0.69-0.36l0,0c0.39,0,0.77,0.13,1.07,0.35
									c0.3,0.2,0.43,0.4,0.53,0.73c0.11,0.48-0.24,1.25-0.96,1.52C389.91,334.93,389.79,334.95,389.67,334.95z"/>
							</g>
						</g>
						<path id="XMLID_4608_" style="fill:#FFFFFF;" d="M434.19,382.39c0,1.9-1.54,3.44-3.44,3.44s-3.44-1.54-3.44-3.44
							c0-1.9,1.54-3.44,3.44-3.44C432.65,378.96,434.19,380.49,434.19,382.39z"/>
						<path id="XMLID_4607_" style="fill:#50C2DC;" d="M423.41,394.93c0-5.02,3.29-9.1,7.35-9.1s7.35,4.07,7.35,9.1
							c0,5.03-7.35,15.22-7.35,15.22S423.41,399.96,423.41,394.93z"/>
						<path id="XMLID_4606_" style="fill:#64EBFF;" d="M430.75,404.94c-2.27-3.66-4.45-7.92-4.45-10c0-3.36,2.04-6.2,4.45-6.2
							s4.45,2.84,4.45,6.2C435.2,397.01,433.03,401.27,430.75,404.94z"/>
						<circle id="XMLID_4605_" style="fill:#FFFFFF;" cx="446.65" cy="378.12" r="3.44"/>
						<path id="XMLID_4604_" style="fill:#50C2DC;" d="M442.8,392.13c-1.3-4.85,0.82-9.64,4.74-10.69c3.91-1.05,8.15,2.03,9.45,6.89
							c1.3,4.85-3.15,16.61-3.15,16.61S444.11,396.99,442.8,392.13z"/>
						<path id="XMLID_4603_" style="fill:#64EBFF;" d="M452.49,399.89c-3.15-2.95-6.35-6.5-6.89-8.51c-0.87-3.25,0.37-6.52,2.7-7.15
							c2.33-0.62,5.03,1.59,5.9,4.84C454.74,391.09,453.74,395.77,452.49,399.89z"/>
						<path id="XMLID_4602_" style="fill:#FFFFFF;" d="M411.55,377.23c-0.49,1.83,0.6,3.72,2.43,4.21c1.84,0.49,3.72-0.6,4.21-2.43
							c0.49-1.83-0.6-3.72-2.43-4.21C413.92,374.31,412.04,375.4,411.55,377.23z"/>
						<path id="XMLID_4601_" style="fill:#50C2DC;" d="M418.72,392.13c1.3-4.85-0.82-9.64-4.74-10.69
							c-3.92-1.05-8.15,2.03-9.45,6.89c-1.3,4.85,3.16,16.61,3.16,16.61S417.42,396.99,418.72,392.13z"/>
						<path id="XMLID_4600_" style="fill:#64EBFF;" d="M409.03,399.89c3.15-2.95,6.35-6.5,6.89-8.51c0.87-3.25-0.36-6.52-2.69-7.15
							c-2.33-0.62-5.04,1.59-5.91,4.84C406.78,391.09,407.78,395.77,409.03,399.89z"/>
						<path id="XMLID_4599_" style="fill:#FFFFFF;" d="M461.82,366.1c0.95,1.64,0.39,3.75-1.25,4.7c-1.65,0.95-3.75,0.39-4.7-1.26
							c-0.95-1.64-0.38-3.75,1.26-4.7S460.87,364.45,461.82,366.1z"/>
						<path id="XMLID_4598_" style="fill:#50C2DC;" d="M458.75,382.35c-2.51-4.35-1.7-9.53,1.82-11.56
							c3.51-2.03,8.4-0.14,10.91,4.21c2.52,4.35,1.25,16.86,1.25,16.86S461.26,386.7,458.75,382.35z"/>
						<path id="XMLID_4597_" style="fill:#64EBFF;" d="M470.11,387.34c-3.8-2.03-7.82-4.63-8.86-6.44c-1.68-2.91-1.34-6.39,0.75-7.6
							c2.09-1.2,5.27,0.23,6.96,3.15C470.01,378.25,470.25,383.03,470.11,387.34z"/>
						<path id="XMLID_4596_" style="fill:#FFFFFF;" d="M399.69,366.1c-0.95,1.64-0.39,3.75,1.26,4.7c1.65,0.95,3.74,0.39,4.7-1.26
							c0.95-1.64,0.39-3.75-1.26-4.7C402.74,363.89,400.64,364.45,399.69,366.1z"/>
						<path id="XMLID_4595_" style="fill:#50C2DC;" d="M402.76,382.35c2.51-4.35,1.71-9.53-1.81-11.56
							c-3.52-2.03-8.4-0.14-10.91,4.21c-2.52,4.35-1.25,16.86-1.25,16.86S400.25,386.7,402.76,382.35z"/>
						<path id="XMLID_4594_" style="fill:#64EBFF;" d="M391.4,387.34c3.8-2.03,7.82-4.63,8.86-6.44c1.68-2.91,1.33-6.39-0.75-7.6
							c-2.09-1.2-5.28,0.23-6.96,3.15C391.5,378.25,391.26,383.03,391.4,387.34z"/>
						<polygon id="XMLID_4593_" style="fill:#FFFFFF;" points="427.32,388.07 427.72,390.55 430.21,390.96 427.72,391.37 
							427.32,393.86 426.91,391.37 424.42,390.96 426.91,390.55 						"/>
						<polygon id="XMLID_4592_" style="fill:#FFFFFF;" points="409.5,382.49 409.91,384.97 412.39,385.38 409.91,385.79 
							409.5,388.28 409.09,385.79 406.6,385.38 409.09,384.97 						"/>
						<polygon id="XMLID_4591_" style="fill:#FFFFFF;" points="396.35,369.98 396.75,372.47 399.24,372.88 396.75,373.29 
							396.35,375.77 395.93,373.29 393.45,372.88 395.93,372.47 						"/>
						<polygon id="XMLID_4590_" style="fill:#FFFFFF;" points="445.63,383.57 446.04,386.06 448.53,386.47 446.04,386.88 
							445.63,389.37 445.22,386.88 442.74,386.47 445.22,386.06 						"/>
						<polygon id="XMLID_4589_" style="fill:#FFFFFF;" points="460.19,372.34 460.6,374.83 463.09,375.24 460.6,375.65 
							460.19,378.13 459.78,375.65 457.29,375.24 459.78,374.83 						"/>
					</g>
				</g>
			</g>
			<g id="XMLID_4472_">
				
					<ellipse id="XMLID_4585_" style="opacity:0.35;fill:#808080;enable-background:new    ;" cx="125.44" cy="466.38" rx="47.55" ry="7.21"/>
				<g id="XMLID_4473_">
					<g id="XMLID_4582_">
						<path id="XMLID_4584_" style="fill:#2D2D2D;" d="M125.44,338.45h35.51c2.6,12.22,22.81,7.03,33.78,14.53
							c0,50-35.04,92.58-35.04,114.53h-34.26H91.18c0-21.94-35.03-64.53-35.03-114.53c10.97-7.51,31.18-2.31,33.78-14.53H125.44z"/>
						<path id="XMLID_4583_" style="fill:#7B7B7B;" d="M160.95,340.09c0,8.5-15.9,15.4-35.51,15.4s-35.51-6.89-35.51-15.4
							c0-8.51,15.9-15.4,35.51-15.4S160.95,331.58,160.95,340.09z"/>
					</g>
					<g id="XMLID_4474_">
						<g id="XMLID_4557_">
							<path id="XMLID_4579_" style="fill:#F0F0F0;" d="M124.97,421.46l-0.55-0.68c-0.24-0.3-5.92-7.26-5.92-11.24
								c0-3.95,5.65-11.88,5.89-12.22l0.58-0.81l0.58,0.81c0.24,0.34,5.89,8.27,5.89,12.22c0,3.97-5.67,10.94-5.91,11.24
								L124.97,421.46z M124.97,399c-1.81,2.66-5.04,7.96-5.04,10.55c0,2.58,3.25,7.31,5.04,9.63c1.79-2.32,5.03-7.05,5.03-9.63
								C130.01,406.96,126.78,401.67,124.97,399z"/>
							<path id="XMLID_4576_" style="fill:#F0F0F0;" d="M127.64,422.56l0.08-0.87c0.04-0.38,0.96-9.32,3.76-12.13
								c2.79-2.79,12.4-4.41,12.8-4.48l0.99-0.16l-0.16,0.99c-0.07,0.41-1.69,10.01-4.48,12.8c-2.81,2.81-11.75,3.72-12.13,3.76
								L127.64,422.56z M143.52,406.69c-3.16,0.61-9.19,2.07-11.02,3.89c-1.82,1.82-2.87,7.46-3.25,10.37
								c2.91-0.37,8.55-1.43,10.37-3.25C141.45,415.87,142.91,409.84,143.52,406.69z"/>
							<path id="XMLID_4573_" style="fill:#F0F0F0;" d="M140.66,431.7c-3.97,0-10.94-5.68-11.24-5.92l-0.68-0.55l0.68-0.55
								c0.29-0.24,7.26-5.91,11.24-5.91c3.95,0,11.88,5.64,12.22,5.88l0.82,0.58l-0.82,0.58C152.54,426.05,144.6,431.7,140.66,431.7
								z M131.03,425.23c2.32,1.79,7.05,5.04,9.63,5.04s7.88-3.23,10.55-5.04c-2.66-1.8-7.96-5.03-10.54-5.03
								C138.08,420.19,133.35,423.44,131.03,425.23z"/>
							<path id="XMLID_4570_" style="fill:#F0F0F0;" d="M145.28,445.53l-0.99-0.16c-0.41-0.07-10.01-1.69-12.8-4.48
								c-2.81-2.81-3.72-11.75-3.76-12.13l-0.08-0.87l0.87,0.08c0.38,0.04,9.32,0.95,12.13,3.77c2.79,2.79,4.41,12.39,4.48,12.8
								L145.28,445.53z M129.26,429.51c0.37,2.91,1.42,8.55,3.25,10.37s7.86,3.29,11.02,3.89c-0.61-3.16-2.07-9.19-3.89-11.02
								C137.8,430.93,132.16,429.88,129.26,429.51z"/>
							<path id="XMLID_4567_" style="fill:#F0F0F0;" d="M124.98,453.95l-0.58-0.82c-0.24-0.33-5.89-8.27-5.89-12.22
								c0-3.97,5.67-10.94,5.91-11.24l0.55-0.68l0.55,0.68c0.24,0.3,5.91,7.26,5.92,11.24c0,3.95-5.65,11.88-5.89,12.22
								L124.98,453.95z M124.98,431.29c-1.79,2.32-5.03,7.05-5.03,9.63c0,2.58,3.23,7.88,5.03,10.55c1.81-2.66,5.04-7.96,5.04-10.55
								C130.01,438.33,126.77,433.6,124.98,431.29z"/>
							<path id="XMLID_4564_" style="fill:#F0F0F0;" d="M104.67,445.53l0.16-0.99c0.07-0.41,1.69-10.01,4.48-12.8
								c2.81-2.81,11.75-3.72,12.13-3.76l0.87-0.09l-0.09,0.87c-0.04,0.38-0.95,9.31-3.76,12.12c-2.79,2.79-12.39,4.41-12.8,4.48
								L104.67,445.53z M120.69,429.51c-2.91,0.37-8.55,1.42-10.37,3.25c-1.83,1.83-3.29,7.86-3.9,11.02
								c3.16-0.6,9.19-2.07,11.02-3.9C119.27,438.06,120.32,432.42,120.69,429.51z"/>
							<path id="XMLID_4561_" style="fill:#F0F0F0;" d="M109.29,431.7c-3.95,0-11.88-5.65-12.22-5.89l-0.82-0.58l0.82-0.58
								c0.33-0.24,8.27-5.89,12.22-5.89c3.97,0,10.94,5.67,11.23,5.91l0.68,0.55l-0.68,0.56
								C120.23,426.03,113.27,431.7,109.29,431.7z M98.75,425.23c2.67,1.81,7.96,5.04,10.55,5.04c2.58,0,7.31-3.25,9.63-5.04
								c-2.32-1.79-7.05-5.03-9.63-5.03C106.71,420.2,101.41,423.43,98.75,425.23z"/>
							<path id="XMLID_4558_" style="fill:#F0F0F0;" d="M122.31,422.57l-0.87-0.09c-0.38-0.04-9.32-0.95-12.13-3.76
								c-2.79-2.79-4.41-12.4-4.48-12.8l-0.16-0.99l0.99,0.16c0.41,0.07,10.01,1.69,12.8,4.48c2.81,2.81,3.73,11.75,3.76,12.13
								L122.31,422.57z M106.43,406.69c0.61,3.16,2.07,9.19,3.89,11.02c1.83,1.82,7.47,2.88,10.37,3.25
								c-0.37-2.91-1.42-8.55-3.25-10.37C115.62,408.75,109.59,407.29,106.43,406.69z"/>
						</g>
						<path id="XMLID_4554_" style="fill:#C8C8C8;" d="M124.97,394.64c-16.9,0-30.59,13.7-30.59,30.59
							c0,16.9,13.7,30.59,30.59,30.59s30.59-13.69,30.59-30.59C155.56,408.34,141.87,394.64,124.97,394.64z M124.97,452.72
							c-15.18,0-27.48-12.31-27.48-27.49s12.31-27.48,27.48-27.48c15.18,0,27.48,12.3,27.48,27.48
							C152.46,440.41,140.15,452.72,124.97,452.72z"/>
						<path id="XMLID_4551_" style="fill:#FFFFFF;" d="M124.97,455.1c-16.47,0-29.87-13.4-29.87-29.87
							c0-16.47,13.4-29.87,29.87-29.87s29.87,13.4,29.87,29.87C154.85,441.7,141.44,455.1,124.97,455.1z M124.97,397.03
							c-15.55,0-28.2,12.65-28.2,28.2c0,15.55,12.65,28.2,28.2,28.2s28.2-12.65,28.2-28.2
							C153.17,409.68,140.52,397.03,124.97,397.03z"/>
						<path id="XMLID_4547_" style="fill:#FFFFFF;" d="M124.97,438.48c-2.48-2.48-5.86-3.88-9.37-3.88c0-3.51-1.39-6.88-3.88-9.37
							c2.49-2.48,3.88-5.85,3.88-9.36c3.51,0,6.88-1.4,9.37-3.88c2.48,2.48,5.85,3.88,9.37,3.88c0,3.51,1.39,6.88,3.88,9.36
							c-2.48,2.48-3.88,5.85-3.88,9.37C130.83,434.6,127.46,436,124.97,438.48z"/>
						<path id="XMLID_4546_" style="fill:#B4B4B4;" d="M134.65,425.23c0,5.35-4.33,9.68-9.68,9.68c-5.35,0-9.68-4.33-9.68-9.68
							c0-5.35,4.33-9.68,9.68-9.68C130.32,415.55,134.65,419.88,134.65,425.23z"/>
						<path id="XMLID_4543_" style="fill:#C9C9C9;" d="M124.97,394.64c1.74,0,3.44,0.18,5.1,0.46c1.09-7.15,1.29-8.42,1.86-12.11
							c0.25-1.63-0.22-3.28-1.3-4.53c-1.07-1.25-2.64-1.98-4.28-1.98c-1.02,0-1.93,0-2.75,0c-1.65,0-3.21,0.72-4.29,1.97
							c-1.07,1.25-1.54,2.91-1.29,4.54c1.16,7.58,1.65,10.77,1.86,12.11C121.54,394.82,123.24,394.64,124.97,394.64z"/>
						<g id="XMLID_4515_">
							<g id="XMLID_4534_">
								<path id="XMLID_4540_" style="fill:#F0F0F0;" d="M163.27,349.09c-0.72,0-1.44-0.3-1.96-0.83c-1.05-1.05-1.12-2.69-0.15-3.65
									c0.93-0.93,2.65-0.86,3.65,0.15c0.5,0.5,0.8,1.15,0.83,1.83c0.03,0.7-0.21,1.35-0.68,1.82
									C164.51,348.84,163.91,349.09,163.27,349.09z M162.85,344.99c-0.36,0-0.69,0.13-0.93,0.37c-0.55,0.55-0.48,1.5,0.15,2.13
									c0.6,0.6,1.6,0.68,2.13,0.15c0.26-0.26,0.39-0.62,0.37-1.01c-0.02-0.41-0.2-0.81-0.51-1.13
									C163.72,345.18,163.28,344.99,162.85,344.99z"/>
								<path id="XMLID_4537_" style="fill:#F0F0F0;" d="M157.77,354.58c-0.72,0-1.43-0.3-1.96-0.83c-1.05-1.05-1.11-2.69-0.15-3.65
									c0.93-0.93,2.65-0.86,3.65,0.15c1.05,1.05,1.11,2.69,0.15,3.65C159.02,354.33,158.42,354.58,157.77,354.58z M157.35,350.48
									c-0.36,0-0.69,0.13-0.93,0.37c-0.55,0.55-0.48,1.5,0.15,2.13c0.6,0.6,1.61,0.67,2.14,0.15c0.55-0.55,0.48-1.5-0.15-2.13
									C158.23,350.67,157.79,350.48,157.35,350.48z"/>
								
									<rect id="XMLID_4536_" x="159.76" y="347.29" transform="matrix(-0.707 -0.7072 0.7072 -0.707 26.6392 709.4966)" style="fill:#F0F0F0;" width="1.07" height="3.88"/>
								
									<rect id="XMLID_4535_" x="154.29" y="352.79" transform="matrix(-0.7077 -0.7065 0.7065 -0.7077 13.7827 715.171)" style="fill:#F0F0F0;" width="1.08" height="3.88"/>
							</g>
							<g id="XMLID_4525_">
								<path id="XMLID_4531_" style="fill:#F0F0F0;" d="M151.94,360.41c-0.72,0-1.43-0.3-1.96-0.83c-0.5-0.5-0.8-1.15-0.83-1.83
									c-0.03-0.7,0.21-1.35,0.69-1.82c0.93-0.93,2.65-0.86,3.65,0.15c0.5,0.5,0.79,1.15,0.83,1.83c0.04,0.7-0.21,1.35-0.68,1.82
									C153.19,360.17,152.59,360.41,151.94,360.41z M151.52,356.31c-0.36,0-0.69,0.13-0.93,0.37c-0.26,0.26-0.39,0.62-0.37,1.01
									c0.02,0.41,0.2,0.81,0.51,1.12c0.6,0.6,1.61,0.68,2.13,0.15c0.26-0.26,0.39-0.61,0.37-1.01c-0.02-0.41-0.21-0.81-0.51-1.13
									C152.39,356.5,151.95,356.31,151.52,356.31z"/>
								<path id="XMLID_4528_" style="fill:#F0F0F0;" d="M146.45,365.9c-0.72,0-1.43-0.3-1.96-0.83c-1.05-1.05-1.11-2.69-0.15-3.66
									c0.94-0.93,2.65-0.86,3.66,0.15c0.5,0.5,0.8,1.15,0.83,1.83c0.03,0.7-0.21,1.35-0.68,1.82
									C147.7,365.65,147.09,365.9,146.45,365.9z M146.03,361.8c-0.36,0-0.69,0.13-0.93,0.37c-0.55,0.55-0.48,1.5,0.15,2.13
									c0.6,0.6,1.61,0.68,2.13,0.15c0.26-0.26,0.39-0.62,0.37-1.01c-0.02-0.41-0.2-0.81-0.52-1.12
									C146.9,361.99,146.46,361.8,146.03,361.8z"/>
								
									<rect id="XMLID_4527_" x="148.44" y="358.62" transform="matrix(-0.7071 -0.7071 0.7071 -0.7071 -0.6424 720.8557)" style="fill:#F0F0F0;" width="1.07" height="3.88"/>
								
									<rect id="XMLID_4526_" x="142.93" y="364.11" transform="matrix(-0.7081 -0.7061 0.7061 -0.7081 -13.4011 726.5626)" style="fill:#F0F0F0;" width="1.08" height="3.88"/>
							</g>
							<g id="XMLID_4516_">
								<path id="XMLID_4522_" style="fill:#F0F0F0;" d="M140.61,371.73c-0.72,0-1.44-0.3-1.97-0.83c-1.05-1.05-1.11-2.69-0.15-3.65
									c0.93-0.93,2.65-0.86,3.66,0.15c1.05,1.05,1.11,2.69,0.15,3.65C141.86,371.49,141.26,371.73,140.61,371.73z M140.19,367.63
									c-0.36,0-0.69,0.13-0.93,0.37c-0.55,0.55-0.48,1.5,0.15,2.13c0.6,0.6,1.61,0.67,2.13,0.15c0.55-0.55,0.48-1.5-0.15-2.13
									C141.06,367.82,140.63,367.63,140.19,367.63z"/>
								<path id="XMLID_4519_" style="fill:#F0F0F0;" d="M135.12,377.22c-0.72,0-1.43-0.3-1.97-0.83c-0.5-0.5-0.8-1.15-0.83-1.83
									c-0.04-0.7,0.21-1.35,0.68-1.82c0.93-0.93,2.65-0.86,3.66,0.15c1.05,1.05,1.11,2.69,0.15,3.65
									C136.37,376.98,135.77,377.22,135.12,377.22z M134.7,373.12c-0.36,0-0.69,0.13-0.93,0.37c-0.26,0.26-0.39,0.62-0.37,1.01
									c0.02,0.41,0.2,0.81,0.52,1.12c0.6,0.61,1.61,0.68,2.13,0.15c0.55-0.55,0.48-1.51-0.15-2.13
									C135.57,373.31,135.13,373.12,134.7,373.12z"/>
								
									<rect id="XMLID_4518_" x="137.1" y="369.95" transform="matrix(-0.7065 -0.7077 0.7077 -0.7065 -28.2957 732.0389)" style="fill:#F0F0F0;" width="1.08" height="3.88"/>
								
									<rect id="XMLID_4517_" x="131.62" y="375.44" transform="matrix(-0.7071 -0.7071 0.7071 -0.7071 -41.2372 737.6697)" style="fill:#F0F0F0;" width="1.08" height="3.88"/>
							</g>
						</g>
						<path id="XMLID_4512_" style="fill:#5AD7F0;" d="M124.97,433.86c-4.76,0-8.63-3.87-8.63-8.63s3.87-8.63,8.63-8.63
							s8.63,3.87,8.63,8.63S129.73,433.86,124.97,433.86z M124.97,418.04c-3.97,0-7.2,3.23-7.2,7.19c0,3.97,3.23,7.2,7.2,7.2
							c3.97,0,7.2-3.23,7.2-7.2C132.17,421.26,128.94,418.04,124.97,418.04z"/>
						<g id="XMLID_4484_">
							<g id="XMLID_4503_">
								<path id="XMLID_4509_" style="fill:#F0F0F0;" d="M86.74,349.09c-0.65,0-1.25-0.24-1.69-0.68c-0.48-0.47-0.72-1.12-0.68-1.82
									c0.03-0.68,0.33-1.33,0.83-1.83c1-1.01,2.72-1.08,3.65-0.15c0.97,0.96,0.9,2.6-0.15,3.65
									C88.18,348.78,87.46,349.09,86.74,349.09z M87.16,344.99c-0.44,0-0.87,0.19-1.2,0.52c-0.31,0.31-0.5,0.71-0.52,1.13
									c-0.02,0.39,0.11,0.75,0.37,1.01c0.52,0.53,1.53,0.46,2.13-0.15c0.63-0.63,0.69-1.59,0.15-2.13
									C87.86,345.12,87.52,344.99,87.16,344.99z"/>
								<path id="XMLID_4506_" style="fill:#F0F0F0;" d="M92.24,354.58c-0.65,0-1.25-0.24-1.69-0.69c-0.96-0.97-0.9-2.6,0.15-3.65
									c1.01-1.01,2.73-1.08,3.66-0.15c0.96,0.97,0.9,2.61-0.15,3.65C93.67,354.27,92.95,354.58,92.24,354.58z M92.66,350.48
									c-0.43,0-0.87,0.19-1.2,0.52c-0.63,0.63-0.69,1.59-0.15,2.13c0.52,0.53,1.53,0.45,2.13-0.15c0.63-0.63,0.69-1.59,0.15-2.13
									C93.35,350.61,93.02,350.48,92.66,350.48z"/>
								
									<rect id="XMLID_4505_" x="87.75" y="348.71" transform="matrix(-0.7071 -0.7071 0.7071 -0.7071 -93.8362 659.6232)" style="fill:#F0F0F0;" width="3.88" height="1.08"/>
								
									<rect id="XMLID_4504_" x="93.24" y="354.19" transform="matrix(-0.7077 -0.7065 0.7065 -0.7077 -88.0751 673.0267)" style="fill:#F0F0F0;" width="3.88" height="1.08"/>
							</g>
							<g id="XMLID_4494_">
								<path id="XMLID_4500_" style="fill:#F0F0F0;" d="M98.07,360.41c-0.65,0-1.25-0.24-1.69-0.68c-0.48-0.48-0.72-1.12-0.68-1.82
									c0.03-0.68,0.33-1.33,0.83-1.83c1.01-1.01,2.72-1.08,3.65-0.15c0.47,0.47,0.72,1.12,0.68,1.82
									c-0.03,0.68-0.33,1.33-0.83,1.83C99.5,360.1,98.79,360.41,98.07,360.41z M98.49,356.31c-0.43,0-0.87,0.19-1.2,0.52
									c-0.31,0.31-0.49,0.71-0.51,1.13c-0.02,0.39,0.11,0.75,0.37,1.01c0.52,0.53,1.53,0.46,2.13-0.15
									c0.31-0.31,0.5-0.71,0.52-1.12c0.02-0.39-0.11-0.75-0.37-1.01C99.18,356.44,98.85,356.31,98.49,356.31z"/>
								<path id="XMLID_4497_" style="fill:#F0F0F0;" d="M103.56,365.9c-0.65,0-1.25-0.24-1.69-0.68c-0.48-0.48-0.72-1.12-0.68-1.82
									c0.04-0.68,0.33-1.33,0.83-1.83c1.01-1.01,2.72-1.08,3.65-0.15c0.97,0.97,0.9,2.61-0.15,3.66
									C105,365.6,104.28,365.9,103.56,365.9z M103.98,361.8c-0.43,0-0.87,0.19-1.2,0.52c-0.31,0.31-0.49,0.71-0.51,1.12
									c-0.02,0.39,0.11,0.75,0.37,1.01c0.53,0.53,1.53,0.45,2.13-0.15c0.63-0.63,0.69-1.59,0.15-2.13
									C104.68,361.93,104.35,361.8,103.98,361.8z"/>
								
									<rect id="XMLID_4496_" x="99.08" y="360.03" transform="matrix(-0.7074 -0.7068 0.7068 -0.7074 -82.3613 687.0411)" style="fill:#F0F0F0;" width="3.88" height="1.08"/>
								
									<rect id="XMLID_4495_" x="104.56" y="365.51" transform="matrix(-0.7078 -0.7064 0.7064 -0.7078 -76.6921 700.3796)" style="fill:#F0F0F0;" width="3.88" height="1.08"/>
							</g>
							<g id="XMLID_4485_">
								<path id="XMLID_4491_" style="fill:#F0F0F0;" d="M109.4,371.73c-0.65,0-1.25-0.24-1.69-0.68c-0.97-0.97-0.9-2.61,0.14-3.65
									c1.01-1.01,2.72-1.08,3.66-0.15c0.97,0.97,0.9,2.61-0.15,3.65C110.83,371.43,110.12,371.73,109.4,371.73z M109.82,367.63
									c-0.44,0-0.87,0.19-1.2,0.52c-0.63,0.63-0.69,1.59-0.15,2.13c0.52,0.52,1.53,0.46,2.14-0.15c0.63-0.63,0.69-1.59,0.15-2.13
									C110.51,367.77,110.18,367.63,109.82,367.63z"/>
								<path id="XMLID_4488_" style="fill:#F0F0F0;" d="M114.89,377.22c-0.65,0-1.25-0.24-1.69-0.68c-0.97-0.97-0.9-2.61,0.15-3.66
									c1.01-1.01,2.72-1.08,3.65-0.15c0.48,0.48,0.72,1.12,0.69,1.82c-0.04,0.68-0.33,1.33-0.83,1.83
									C116.32,376.92,115.61,377.22,114.89,377.22z M115.31,373.12c-0.44,0-0.87,0.19-1.2,0.52c-0.63,0.63-0.69,1.59-0.15,2.13
									c0.53,0.53,1.53,0.46,2.13-0.15c0.31-0.31,0.5-0.71,0.51-1.13c0.02-0.39-0.11-0.75-0.37-1.01
									C116,373.25,115.67,373.12,115.31,373.12z"/>
								
									<rect id="XMLID_4487_" x="110.43" y="371.35" transform="matrix(-0.7068 -0.7074 0.7074 -0.7068 -71.2845 714.2313)" style="fill:#F0F0F0;" width="3.88" height="1.07"/>
								
									<rect id="XMLID_4486_" x="115.89" y="376.83" transform="matrix(-0.7068 -0.7074 0.7074 -0.7068 -65.8398 727.4352)" style="fill:#F0F0F0;" width="3.88" height="1.07"/>
							</g>
						</g>
						<g id="XMLID_4476_">
							<circle id="XMLID_4483_" style="fill:#50C2DC;" cx="124.97" cy="425.23" r="7.91"/>
							<rect id="XMLID_4482_" x="124.26" y="417.32" style="fill:#5FE1F5;" width="1.43" height="15.83"/>
							<rect id="XMLID_4481_" x="117.06" y="424.52" style="fill:#5FE1F5;" width="15.83" height="1.43"/>
							
								<rect id="XMLID_4480_" x="117.07" y="424.52" transform="matrix(-0.7072 -0.707 0.707 -0.7072 -87.2741 814.3343)" style="fill:#5FE1F5;" width="15.83" height="1.43"/>
							
								<rect id="XMLID_4479_" x="124.24" y="417.34" transform="matrix(-0.7072 -0.7071 0.7071 -0.7072 -87.3567 814.3351)" style="fill:#5FE1F5;" width="1.43" height="15.83"/>
							<path id="XMLID_4478_" style="fill:#64EBFF;" d="M129.87,425.23c0,2.71-2.19,4.9-4.9,4.9s-4.9-2.19-4.9-4.9
								c0-2.7,2.19-4.9,4.9-4.9S129.87,422.53,129.87,425.23z"/>
							<polygon id="XMLID_4477_" style="fill:#FFFFFF;" points="121.51,418.9 121.92,421.36 124.38,421.77 121.92,422.17 
								121.51,424.63 121.1,422.17 118.64,421.77 121.1,421.36 							"/>
						</g>
						<path id="XMLID_4475_" style="fill:#FFFFFF;" d="M126.35,376.48c-0.48,0-0.94,0-1.37,0v18.16c1.74,0,3.44,0.18,5.1,0.46
							c1.1-7.15,1.29-8.42,1.86-12.11c0.25-1.63-0.23-3.28-1.29-4.53C129.56,377.21,128,376.48,126.35,376.48z"/>
					</g>
				</g>
			</g>
			<g id="XMLID_4342_">
				
					<ellipse id="XMLID_4471_" style="opacity:0.35;fill:#808080;enable-background:new    ;" cx="280.37" cy="472.19" rx="92.38" ry="7.84"/>
				<g id="XMLID_4343_">
					<rect id="XMLID_4470_" x="204.96" y="420.17" style="fill:#464646;" width="153.82" height="53.51"/>
					<polygon id="XMLID_4469_" style="fill:#7D7D7D;" points="358.78,420.63 204.96,420.63 230.24,403.36 333.51,403.36 					"/>
					<g id="XMLID_4465_">
						<path id="XMLID_4468_" style="fill:#FFFFFF;" d="M281.86,261.01h41.77c3.05,14.38,26.82,8.26,39.72,17.09
							c0,58.8-41.2,108.88-41.2,134.69h-40.29h-40.29c0-25.81-41.2-75.89-41.2-134.69c12.9-8.83,36.67-2.72,39.72-17.09H281.86z"/>
						<path id="XMLID_4467_" style="fill:#FFFFFF;" d="M323.63,262.93c0,10-18.7,18.11-41.77,18.11c-23.06,0-41.77-8.11-41.77-18.11
							s18.7-18.11,41.77-18.11S323.63,252.93,323.63,262.93z"/>
						<path id="XMLID_4466_" style="fill:#C6C6C6;" d="M320.27,261.47c0,9.2-17.19,16.65-38.41,16.65
							c-21.21,0-38.41-7.45-38.41-16.65c0-9.2,17.2-16.65,38.41-16.65S320.27,252.28,320.27,261.47z"/>
					</g>
					<g id="XMLID_4344_">
						<g id="XMLID_4437_">
							<g id="XMLID_4456_">
								<path id="XMLID_4462_" style="fill:#FFC600;" d="M238.71,272.84c-0.74,0-1.43-0.28-1.95-0.8c-0.53-0.53-0.82-1.25-0.8-2.02
									c0.02-0.76,0.33-1.48,0.87-2.03c1.1-1.1,2.99-1.14,4.05-0.08c1.1,1.1,1.07,2.92-0.07,4.06
									C240.25,272.53,239.5,272.84,238.71,272.84z M238.93,268.27c-0.47,0-0.93,0.19-1.28,0.54c-0.33,0.33-0.52,0.77-0.54,1.23
									c-0.01,0.45,0.16,0.86,0.46,1.17c0.62,0.62,1.74,0.58,2.41-0.08c0.68-0.68,0.72-1.76,0.07-2.4
									C239.77,268.43,239.36,268.27,238.93,268.27z"/>
								<path id="XMLID_4459_" style="fill:#FFC600;" d="M245.02,279.13c-0.74,0-1.44-0.28-1.95-0.8c-0.54-0.53-0.82-1.25-0.81-2.02
									c0.02-0.76,0.33-1.48,0.88-2.03c1.1-1.11,2.99-1.14,4.05-0.08c1.09,1.1,1.06,2.92-0.07,4.05
									C246.56,278.82,245.81,279.13,245.02,279.13z M245.24,274.57c-0.47,0-0.93,0.19-1.27,0.54c-0.33,0.33-0.52,0.77-0.53,1.23
									c-0.01,0.45,0.15,0.87,0.46,1.17c0.63,0.62,1.74,0.58,2.4-0.08c0.68-0.68,0.71-1.76,0.07-2.4
									C246.07,274.73,245.67,274.57,245.24,274.57z"/>
								
									<rect id="XMLID_4458_" x="239.73" y="272.53" transform="matrix(-0.7077 -0.7065 0.7065 -0.7077 220.2393 637.3405)" style="fill:#FFC600;" width="4.45" height="1.17"/>
								
									<rect id="XMLID_4457_" x="246.03" y="278.83" transform="matrix(-0.7078 -0.7064 0.7064 -0.7078 226.6078 652.5615)" style="fill:#FFC600;" width="4.46" height="1.17"/>
							</g>
							<g id="XMLID_4447_">
								<path id="XMLID_4453_" style="fill:#FFC600;" d="M251.73,285.82c-0.74,0-1.44-0.28-1.96-0.8c-0.54-0.54-0.82-1.25-0.8-2.03
									c0.02-0.76,0.33-1.48,0.87-2.03c1.1-1.1,2.99-1.14,4.05-0.08c1.1,1.1,1.06,2.92-0.07,4.05
									C253.26,285.51,252.51,285.82,251.73,285.82z M251.94,281.26c-0.48,0-0.93,0.19-1.27,0.54c-0.34,0.34-0.53,0.77-0.54,1.23
									c-0.01,0.45,0.15,0.86,0.46,1.17c0.62,0.62,1.74,0.58,2.4-0.08c0.68-0.68,0.72-1.76,0.08-2.4
									C252.78,281.42,252.37,281.26,251.94,281.26z"/>
								<path id="XMLID_4450_" style="fill:#FFC600;" d="M258.03,292.12c-0.74,0-1.44-0.29-1.95-0.8c-0.54-0.54-0.83-1.25-0.81-2.03
									c0.02-0.76,0.33-1.48,0.88-2.03c1.11-1.11,2.99-1.14,4.05-0.08c0.54,0.54,0.82,1.25,0.8,2.03
									c-0.02,0.76-0.33,1.48-0.88,2.03C259.56,291.8,258.82,292.12,258.03,292.12z M258.25,287.55c-0.47,0-0.93,0.19-1.27,0.54
									c-0.33,0.33-0.52,0.77-0.53,1.23c-0.02,0.45,0.15,0.87,0.45,1.17c0.62,0.62,1.74,0.58,2.4-0.08
									c0.33-0.33,0.52-0.77,0.54-1.23c0.01-0.45-0.16-0.87-0.46-1.17C259.08,287.71,258.68,287.55,258.25,287.55z"/>
								
									<rect id="XMLID_4449_" x="252.75" y="285.52" transform="matrix(-0.7082 -0.706 0.706 -0.7082 233.5645 668.7397)" style="fill:#FFC600;" width="4.46" height="1.17"/>
								
									<rect id="XMLID_4448_" x="259.05" y="291.82" transform="matrix(-0.7074 -0.7068 0.7068 -0.7074 239.4346 683.9263)" style="fill:#FFC600;" width="4.46" height="1.17"/>
							</g>
							<g id="XMLID_4438_">
								<path id="XMLID_4444_" style="fill:#FFC600;" d="M264.73,298.81c-0.74,0-1.44-0.29-1.95-0.8c-1.09-1.1-1.06-2.92,0.07-4.05
									c1.11-1.1,2.99-1.14,4.06-0.08c0.53,0.53,0.81,1.25,0.8,2.03c-0.02,0.76-0.33,1.48-0.87,2.03
									C266.27,298.49,265.52,298.81,264.73,298.81z M264.95,294.24c-0.47,0-0.92,0.19-1.27,0.54c-0.68,0.68-0.72,1.76-0.07,2.4
									c0.62,0.62,1.74,0.59,2.4-0.08c0.34-0.34,0.52-0.77,0.54-1.23c0.01-0.45-0.15-0.87-0.46-1.17
									C265.79,294.4,265.39,294.24,264.95,294.24z"/>
								<path id="XMLID_4441_" style="fill:#FFC600;" d="M271.04,305.1c-0.74,0-1.44-0.28-1.95-0.8c-0.53-0.53-0.82-1.25-0.8-2.02
									c0.02-0.76,0.33-1.48,0.87-2.03c1.1-1.1,2.99-1.14,4.06-0.08c0.54,0.53,0.82,1.25,0.81,2.02c-0.02,0.76-0.33,1.48-0.88,2.03
									C272.57,304.79,271.83,305.1,271.04,305.1z M271.26,300.54c-0.48,0-0.93,0.19-1.27,0.54c-0.33,0.34-0.52,0.77-0.54,1.23
									c-0.01,0.45,0.15,0.86,0.46,1.17c0.62,0.62,1.75,0.58,2.4-0.08c0.33-0.33,0.53-0.77,0.53-1.23
									c0.01-0.45-0.15-0.86-0.46-1.17C272.09,300.7,271.69,300.54,271.26,300.54z"/>
								
									<rect id="XMLID_4440_" x="265.79" y="298.5" transform="matrix(-0.7079 -0.7063 0.7063 -0.7079 246.5081 700.1116)" style="fill:#FFC600;" width="4.46" height="1.17"/>
								<polygon id="XMLID_4439_" style="fill:#FFC600;" points="275.47,307.37 272.32,304.22 273.14,303.39 276.29,306.54 								
									"/>
							</g>
						</g>
						<g id="XMLID_4409_">
							<g id="XMLID_4428_">
								<path id="XMLID_4434_" style="fill:#FFC600;" d="M325.1,272.84c-0.78,0-1.53-0.31-2.1-0.88c-1.14-1.14-1.17-2.96-0.07-4.06
									c1.06-1.06,2.95-1.02,4.05,0.08c0.55,0.55,0.86,1.27,0.87,2.03c0.02,0.77-0.27,1.49-0.8,2.02
									C326.54,272.55,325.84,272.84,325.1,272.84z M324.88,268.27c-0.43,0-0.83,0.16-1.13,0.46c-0.64,0.64-0.61,1.72,0.08,2.4
									c0.66,0.66,1.78,0.7,2.4,0.08c0.3-0.31,0.47-0.72,0.46-1.17c-0.01-0.46-0.2-0.9-0.53-1.23
									C325.81,268.46,325.35,268.27,324.88,268.27z"/>
								<path id="XMLID_4431_" style="fill:#FFC600;" d="M318.8,279.13c-0.79,0-1.54-0.31-2.11-0.88c-1.13-1.14-1.16-2.96-0.07-4.05
									c1.07-1.06,2.95-1.02,4.06,0.08c0.55,0.55,0.86,1.27,0.88,2.03c0.02,0.77-0.27,1.49-0.81,2.02
									C320.23,278.85,319.54,279.13,318.8,279.13z M318.58,274.57c-0.43,0-0.83,0.16-1.13,0.46c-0.64,0.64-0.61,1.72,0.07,2.4
									c0.66,0.66,1.78,0.7,2.4,0.08c0.3-0.3,0.47-0.72,0.46-1.17c-0.01-0.46-0.2-0.9-0.53-1.23
									C319.5,274.76,319.05,274.57,318.58,274.57z"/>
								<polygon id="XMLID_4430_" style="fill:#FFC600;" points="320.67,275.1 319.85,274.28 323,271.13 323.83,271.96 								"/>
								
									<rect id="XMLID_4429_" x="314.95" y="277.17" transform="matrix(-0.7077 -0.7065 0.7065 -0.7077 341.4361 700.0649)" style="fill:#FFC600;" width="1.17" height="4.46"/>
							</g>
							<g id="XMLID_4419_">
								<path id="XMLID_4425_" style="fill:#FFC600;" d="M312.09,285.82c-0.79,0-1.53-0.31-2.1-0.88c-1.14-1.14-1.18-2.96-0.07-4.05
									c1.06-1.06,2.95-1.02,4.05,0.08c0.55,0.55,0.86,1.27,0.87,2.03c0.02,0.77-0.27,1.49-0.8,2.03
									C313.53,285.54,312.84,285.82,312.09,285.82z M311.87,281.26c-0.43,0-0.83,0.16-1.13,0.46c-0.64,0.64-0.6,1.72,0.08,2.4
									c0.66,0.66,1.78,0.7,2.4,0.08c0.31-0.31,0.47-0.72,0.46-1.17c-0.01-0.46-0.2-0.9-0.54-1.23
									C312.8,281.45,312.35,281.26,311.87,281.26z"/>
								<path id="XMLID_4422_" style="fill:#FFC600;" d="M305.79,292.12c-0.79,0-1.53-0.32-2.1-0.88c-0.55-0.55-0.86-1.27-0.87-2.03
									c-0.02-0.77,0.27-1.49,0.8-2.03c1.06-1.06,2.95-1.03,4.05,0.08c0.55,0.55,0.86,1.27,0.88,2.03
									c0.02,0.77-0.27,1.49-0.81,2.03C307.22,291.83,306.52,292.12,305.79,292.12z M305.56,287.55c-0.43,0-0.83,0.16-1.13,0.46
									c-0.3,0.3-0.47,0.72-0.46,1.17c0.02,0.46,0.2,0.9,0.54,1.23c0.66,0.66,1.78,0.7,2.4,0.08c0.31-0.3,0.47-0.72,0.46-1.17
									c-0.01-0.46-0.2-0.9-0.53-1.23C306.49,287.74,306.04,287.55,305.56,287.55z"/>
								
									<rect id="XMLID_4421_" x="308.26" y="283.86" transform="matrix(-0.7059 -0.7083 0.7083 -0.7059 324.2221 706.8057)" style="fill:#FFC600;" width="1.17" height="4.46"/>
								
									<rect id="XMLID_4420_" x="301.93" y="290.17" transform="matrix(-0.7065 -0.7077 0.7077 -0.7065 309.3152 713.0693)" style="fill:#FFC600;" width="1.17" height="4.45"/>
							</g>
							<g id="XMLID_4410_">
								<path id="XMLID_4416_" style="fill:#FFC600;" d="M299.08,298.81c-0.79,0-1.54-0.31-2.1-0.88c-0.55-0.55-0.86-1.27-0.87-2.03
									c-0.02-0.77,0.26-1.49,0.8-2.03c1.06-1.06,2.95-1.02,4.05,0.08c1.13,1.14,1.17,2.96,0.07,4.05
									C300.52,298.52,299.83,298.81,299.08,298.81z M298.86,294.24c-0.43,0-0.83,0.16-1.13,0.46c-0.31,0.31-0.47,0.72-0.46,1.17
									c0.01,0.46,0.2,0.9,0.54,1.23c0.66,0.66,1.78,0.7,2.4,0.08c0.64-0.64,0.61-1.72-0.08-2.4
									C299.79,294.43,299.34,294.24,298.86,294.24z"/>
								<path id="XMLID_4413_" style="fill:#FFC600;" d="M292.77,305.1c-0.79,0-1.53-0.31-2.1-0.88c-0.55-0.55-0.86-1.27-0.88-2.03
									c-0.02-0.77,0.27-1.49,0.81-2.02c1.06-1.06,2.95-1.02,4.05,0.08c0.55,0.55,0.86,1.27,0.87,2.03
									c0.02,0.77-0.27,1.49-0.8,2.02C294.21,304.82,293.52,305.1,292.77,305.1z M292.55,300.54c-0.43,0-0.83,0.16-1.13,0.46
									c-0.3,0.31-0.47,0.72-0.45,1.17c0.01,0.46,0.2,0.9,0.53,1.23c0.66,0.66,1.78,0.7,2.4,0.08c0.31-0.31,0.47-0.72,0.46-1.17
									c-0.01-0.46-0.21-0.9-0.54-1.23C293.48,300.73,293.03,300.54,292.55,300.54z"/>
								
									<rect id="XMLID_4412_" x="295.23" y="296.88" transform="matrix(-0.7055 -0.7088 0.7088 -0.7055 292.4942 719.7785)" style="fill:#FFC600;" width="1.17" height="4.46"/>
								<polygon id="XMLID_4411_" style="fill:#FFC600;" points="288.34,307.37 287.52,306.54 290.68,303.39 291.5,304.22 								
									"/>
							</g>
						</g>
						<path id="XMLID_4408_" style="fill:#FFC600;" d="M288.92,324.26c0,3.95-3.2,7.16-7.15,7.16c-3.95,0-7.15-3.2-7.15-7.16
							c0-3.95,3.2-7.15,7.15-7.15C285.71,317.11,288.92,320.31,288.92,324.26z"/>
						<path id="XMLID_4407_" style="fill:#FFD500;" d="M277.12,318.86c1.25-1.08,2.86-1.76,4.65-1.76s3.4,0.68,4.65,1.76
							c0.81-5.31,0.99-6.48,1.46-9.52c0.22-1.43-0.2-2.88-1.14-3.98c-0.94-1.1-2.32-1.73-3.76-1.73c-0.9,0-1.7,0-2.41,0
							c-1.45,0-2.82,0.63-3.77,1.73c-0.95,1.1-1.36,2.56-1.14,3.99C276.44,314.45,276.87,317.28,277.12,318.86z"/>
						<path id="XMLID_4406_" style="fill:#FFD500;" d="M281.76,393.1c10.52,0,22.85-8.96,22.85-29.35
							c0-20.39-22.85-32.34-22.85-32.34s-22.85,11.96-22.85,32.34C258.92,384.14,271.24,393.1,281.76,393.1z"/>
						<path id="XMLID_4405_" style="fill:#FFE100;" d="M304.61,363.76c0-20.39-22.85-32.34-22.85-32.34v61.69
							C292.28,393.1,304.61,384.14,304.61,363.76z"/>
						<path id="XMLID_4404_" style="fill:#EBAA00;" d="M281.76,389.99c-9.51,0-19.73-8.21-19.73-26.23
							c0-15.44,14.95-25.82,19.73-28.74c4.77,2.93,19.74,13.35,19.74,28.74C301.5,381.78,291.27,389.99,281.76,389.99z"/>
						<path id="XMLID_4403_" style="fill:#F0B400;" d="M281.76,389.99c9.51,0,19.73-8.21,19.73-26.23
							c0-15.39-14.97-25.81-19.74-28.74L281.76,389.99L281.76,389.99z"/>
						<g id="XMLID_4354_">
							<g id="XMLID_4400_">
								<path id="XMLID_4402_" style="fill:#E6E6D2;" d="M289.01,345.69c-1.25,1.2-3.11,1.26-4.28,0.24
									c-1.17-1.03-1.32-2.92-0.27-4.28c1.04-1.37,3.05-1.58,4.41-0.38C290.22,342.46,290.24,344.51,289.01,345.69z"/>
								<path id="XMLID_4401_" style="fill:#FFFFFF;" d="M286.68,345.56c-0.47,0-0.9-0.16-1.24-0.45c-0.74-0.66-0.8-1.92-0.13-2.8
									c0.36-0.47,0.91-0.74,1.5-0.74c0.34,0,0.84,0.09,1.32,0.51c0.43,0.38,0.67,0.89,0.68,1.44c0.01,0.53-0.19,1.02-0.57,1.39
									C287.81,345.33,287.26,345.56,286.68,345.56z"/>
							</g>
							<g id="XMLID_4397_">
								<path id="XMLID_4399_" style="fill:#E6E6D2;" d="M293.55,351.27c-1.45,0.91-3.29,0.65-4.22-0.53
									c-0.96-1.18-0.79-3.05,0.44-4.24c1.25-1.2,3.27-1.08,4.43,0.36C295.36,348.32,295.01,350.35,293.55,351.27z"/>
								<path id="XMLID_4398_" style="fill:#FFFFFF;" d="M291.68,350.73c-0.61,0-1.15-0.24-1.49-0.67
									c-0.62-0.77-0.47-2.01,0.34-2.78c0.34-0.33,0.79-0.51,1.27-0.51c0.59,0,1.16,0.28,1.56,0.77c0.36,0.46,0.51,1.03,0.42,1.59
									c-0.1,0.51-0.38,0.95-0.81,1.22C292.57,350.59,292.13,350.73,291.68,350.73z"/>
							</g>
							<g id="XMLID_4394_">
								<path id="XMLID_4396_" style="fill:#E6E6D2;" d="M296.66,357.74c-0.81,0.25-1.65,0.16-2.37-0.11
									c-0.71-0.28-1.22-0.77-1.56-1.43c-0.57-1.32-0.08-3.06,1.42-3.99c1.43-0.9,3.47-0.37,4.25,1.4
									c0.43,0.85,0.37,1.82,0.05,2.56C298.14,356.91,297.49,357.48,296.66,357.74z"/>
								<path id="XMLID_4395_" style="fill:#FFFFFF;" d="M295.67,356.79c-0.32,0-0.66-0.06-0.98-0.19
									c-0.44-0.17-0.75-0.46-0.98-0.92c-0.3-0.7-0.07-1.88,1.02-2.56c0.28-0.18,0.6-0.27,0.93-0.27c0.59,0,1.36,0.31,1.74,1.18
									c0.32,0.62,0.23,1.28,0.05,1.7c-0.19,0.46-0.57,0.8-1.1,0.96C296.13,356.76,295.9,356.79,295.67,356.79z"/>
							</g>
							<g id="XMLID_4391_">
								<path id="XMLID_4393_" style="fill:#E6E6D2;" d="M297.57,364.85c-0.86-0.02-1.63-0.38-2.17-0.9c-0.56-0.52-0.98-1.12-1-1.83
									c-0.08-0.7,0.13-1.38,0.62-1.99c0.45-0.59,1.1-1.1,1.94-1.32c0.83-0.21,1.7-0.07,2.37,0.42c0.65,0.49,1.16,1.3,1.27,2.27
									c0.05,0.97-0.22,1.89-0.79,2.47C299.22,364.54,298.43,364.87,297.57,364.85z"/>
								<path id="XMLID_4392_" style="fill:#FFFFFF;" d="M297.6,363.76c-0.54-0.02-1.07-0.23-1.45-0.6
									c-0.43-0.41-0.65-0.76-0.66-1.09c-0.05-0.49,0.08-0.89,0.38-1.27c0.27-0.35,0.7-0.78,1.36-0.94
									c0.16-0.04,0.32-0.06,0.48-0.06c0.36,0,0.71,0.11,0.99,0.31c0.44,0.33,0.75,0.9,0.82,1.5c0.03,0.62-0.15,1.24-0.49,1.59
									c-0.36,0.35-0.84,0.55-1.36,0.55h-0.07V363.76z"/>
							</g>
							<g id="XMLID_4388_">
								<path id="XMLID_4390_" style="fill:#E6E6D2;" d="M296.67,371.98c-1.63-0.43-2.75-1.96-2.5-3.43c0.17-1.5,1.68-2.67,3.36-2.6
									c1.75,0.07,3.02,1.62,2.81,3.47C300.03,371.28,298.36,372.42,296.67,371.98z"/>
								<path id="XMLID_4389_" style="fill:#FFFFFF;" d="M297.4,370.98c-0.15,0-0.3-0.02-0.45-0.06c-1.08-0.29-1.87-1.29-1.72-2.19
									c0.11-0.96,1.08-1.7,2.16-1.7c0.6,0.02,1.07,0.24,1.4,0.63c0.37,0.43,0.52,1.01,0.45,1.62
									C299.09,370.27,298.33,370.98,297.4,370.98z"/>
							</g>
							<g id="XMLID_4385_">
								<path id="XMLID_4387_" style="fill:#E6E6D2;" d="M293.97,378.63c-1.44-0.94-2.02-2.64-1.46-3.93
									c0.28-0.67,0.81-1.18,1.53-1.47c0.7-0.3,1.51-0.41,2.35-0.18c0.81,0.23,1.5,0.79,1.85,1.54c0.32,0.74,0.38,1.68,0.01,2.57
									C297.46,378.95,295.41,379.57,293.97,378.63z"/>
								<path id="XMLID_4386_" style="fill:#FFFFFF;" d="M295.45,377.97c-0.32,0-0.62-0.09-0.89-0.26
									c-0.95-0.62-1.41-1.76-1.05-2.58c0.17-0.42,0.49-0.71,0.94-0.9c0.35-0.15,0.69-0.22,1.02-0.22c0.2,0,0.41,0.03,0.61,0.08
									c0.53,0.15,0.95,0.5,1.16,0.95c0.22,0.5,0.22,1.14-0.01,1.68C296.91,377.48,296.21,377.97,295.45,377.97z"/>
							</g>
							<g id="XMLID_4382_">
								<path id="XMLID_4384_" style="fill:#E6E6D2;" d="M289.07,383.82c-0.47-0.72-0.63-1.56-0.6-2.28
									c0.07-0.7,0.25-1.41,0.76-1.85c0.92-0.94,2.7-1.09,4.14-0.14c1.43,0.94,1.71,3.07,0.26,4.55
									C292.14,385.56,289.96,385.29,289.07,383.82z"/>
								<path id="XMLID_4383_" style="fill:#FFFFFF;" d="M291.37,383.98c-0.58,0-1.09-0.27-1.37-0.72
									c-0.32-0.49-0.47-1.08-0.43-1.65c0.04-0.52,0.17-0.91,0.37-1.08c0.35-0.35,0.81-0.52,1.33-0.52s1.04,0.16,1.5,0.46
									c0.4,0.26,0.66,0.7,0.71,1.19c0.07,0.6-0.16,1.2-0.63,1.68C292.44,383.74,291.9,383.98,291.37,383.98z"/>
							</g>
							<g id="XMLID_4379_">
								<path id="XMLID_4381_" style="fill:#E6E6D2;" d="M282.31,386.06c-0.03-0.86,0.26-1.66,0.64-2.24
									c0.39-0.67,0.89-1.03,1.5-1.25c0.62-0.14,1.26-0.1,1.94,0.25c0.65,0.31,1.3,0.81,1.73,1.57c0.42,0.75,0.49,1.62,0.16,2.41
									c-0.35,0.75-1.07,1.5-2.1,1.75c-0.99,0.33-2.02,0.08-2.72-0.36C282.75,387.68,282.35,386.92,282.31,386.06z"/>
								<path id="XMLID_4380_" style="fill:#FFFFFF;" d="M285.24,387.62c-0.41,0-0.85-0.13-1.19-0.34
									c-0.37-0.27-0.62-0.72-0.63-1.25c-0.02-0.54,0.15-1.13,0.46-1.6c0.27-0.45,0.54-0.67,0.96-0.83c0,0,0,0,0.01,0
									c0.04,0,0.16-0.01,0.27-0.01c0.26,0,0.52,0.07,0.79,0.21c0.42,0.2,0.95,0.53,1.27,1.13c0.27,0.46,0.3,0.99,0.11,1.45
									c-0.2,0.41-0.66,0.95-1.36,1.12C285.64,387.58,285.44,387.62,285.24,387.62z"/>
							</g>
							<g id="XMLID_4376_">
								<path id="XMLID_4378_" style="fill:#E6E6D2;" d="M275.41,384.39c0.43-0.76,1.08-1.26,1.74-1.57
									c0.67-0.35,1.31-0.39,1.94-0.25c0.6,0.22,1.11,0.59,1.49,1.25c0.39,0.58,0.68,1.38,0.64,2.24
									c-0.03,0.86-0.42,1.62-1.14,2.14c-0.69,0.44-1.73,0.69-2.72,0.36c-1.02-0.25-1.75-1.01-2.1-1.75
									C274.91,386.01,274.99,385.13,275.41,384.39z"/>
								<path id="XMLID_4377_" style="fill:#FFFFFF;" d="M278.3,387.62c-0.21,0-0.41-0.04-0.6-0.1c-0.77-0.2-1.24-0.74-1.45-1.18
									c-0.18-0.43-0.14-0.94,0.12-1.41c0.34-0.6,0.86-0.94,1.25-1.12c0.3-0.16,0.56-0.22,0.83-0.22c0.13,0,0.27,0.01,0.41,0.05
									c0.3,0.12,0.57,0.34,0.79,0.73c0.34,0.53,0.51,1.11,0.49,1.65c-0.02,0.53-0.26,0.98-0.69,1.3
									C279.14,387.49,278.71,387.62,278.3,387.62z"/>
							</g>
							<g id="XMLID_4373_">
								<path id="XMLID_4375_" style="fill:#E6E6D2;" d="M270.16,379.55c1.45-0.95,3.23-0.79,4.14,0.14
									c0.51,0.43,0.7,1.14,0.76,1.85c0.04,0.72-0.12,1.56-0.59,2.28c-0.89,1.47-3.08,1.74-4.57,0.29
									C268.46,382.63,268.73,380.49,270.16,379.55z"/>
								<path id="XMLID_4374_" style="fill:#FFFFFF;" d="M272.16,383.98c-0.54,0-1.07-0.23-1.5-0.65c-0.46-0.47-0.68-1.07-0.62-1.67
									c0.06-0.5,0.32-0.93,0.71-1.19c0.59-0.38,1.14-0.46,1.5-0.46c0.52,0,0.98,0.17,1.27,0.45c0.27,0.24,0.4,0.62,0.45,1.18
									c0.03,0.54-0.12,1.13-0.42,1.59C273.25,383.71,272.74,383.98,272.16,383.98z"/>
							</g>
							<g id="XMLID_4370_">
								<path id="XMLID_4372_" style="fill:#E6E6D2;" d="M267.15,373.05c0.83-0.24,1.65-0.13,2.34,0.18
									c0.72,0.29,1.25,0.8,1.53,1.47c0.56,1.29-0.02,2.99-1.46,3.93s-3.48,0.33-4.27-1.48c-0.37-0.88-0.31-1.83,0.01-2.56
									C265.64,373.85,266.32,373.29,267.15,373.05z"/>
								<path id="XMLID_4371_" style="fill:#FFFFFF;" d="M268.08,377.98c-0.75,0-1.46-0.5-1.79-1.26c-0.22-0.53-0.22-1.17,0.01-1.69
									c0.2-0.43,0.62-0.78,1.15-0.93c0.2-0.06,0.4-0.09,0.61-0.09c0.33,0,0.67,0.07,1,0.21c0.47,0.19,0.78,0.49,0.95,0.89
									c0.36,0.84-0.1,1.98-1.05,2.6C268.7,377.89,268.39,377.98,268.08,377.98z"/>
							</g>
							<g id="XMLID_4367_">
								<path id="XMLID_4369_" style="fill:#E6E6D2;" d="M266,365.96c1.69-0.07,3.2,1.1,3.37,2.6c0.25,1.47-0.87,3-2.5,3.43
									c-1.7,0.44-3.37-0.7-3.67-2.56C262.98,367.57,264.25,366.02,266,365.96z"/>
								<path id="XMLID_4368_" style="fill:#FFFFFF;" d="M266.12,370.99c-0.93,0-1.69-0.71-1.86-1.74c-0.06-0.57,0.1-1.14,0.47-1.58
									c0.33-0.38,0.8-0.61,1.31-0.63c0,0,0,0,0.01,0c1.17,0,2.13,0.73,2.23,1.63c0.16,0.96-0.63,1.97-1.7,2.25
									C266.43,370.97,266.27,370.99,266.12,370.99z"/>
							</g>
							<g id="XMLID_4364_">
								<path id="XMLID_4366_" style="fill:#E6E6D2;" d="M266.57,358.81c0.84,0.21,1.49,0.72,1.94,1.31
									c0.49,0.61,0.7,1.29,0.62,1.99c-0.02,0.71-0.44,1.31-1,1.84c-0.55,0.52-1.32,0.88-2.18,0.9c-0.86,0.02-1.65-0.3-2.23-0.88
									c-0.57-0.58-0.85-1.5-0.8-2.47c0.1-0.97,0.63-1.79,1.27-2.27C264.87,358.74,265.74,358.59,266.57,358.81z"/>
								<path id="XMLID_4365_" style="fill:#FFFFFF;" d="M265.87,363.76c-0.52,0-1.01-0.2-1.37-0.57c-0.34-0.34-0.52-0.95-0.48-1.64
									c0.06-0.54,0.38-1.11,0.84-1.46c0.26-0.18,0.6-0.29,0.97-0.29c0.16,0,0.32,0.02,0.47,0.06c0.66,0.17,1.1,0.59,1.35,0.92
									c0.32,0.4,0.45,0.8,0.4,1.21c-0.01,0.41-0.22,0.76-0.66,1.16c-0.39,0.38-0.92,0.59-1.46,0.61H265.87L265.87,363.76z"/>
							</g>
							<g id="XMLID_4361_">
								<path id="XMLID_4363_" style="fill:#E6E6D2;" d="M269.37,352.2c1.48,0.93,1.98,2.67,1.42,3.99
									c-0.34,0.66-0.84,1.15-1.56,1.43c-0.72,0.28-1.55,0.36-2.37,0.12c-0.83-0.25-1.48-0.82-1.79-1.57
									c-0.31-0.74-0.38-1.72,0.05-2.56C265.89,351.83,267.94,351.3,269.37,352.2z"/>
								<path id="XMLID_4362_" style="fill:#FFFFFF;" d="M267.85,356.79c-0.23,0-0.46-0.03-0.68-0.1c-0.51-0.16-0.92-0.5-1.1-0.95
									c-0.18-0.43-0.27-1.09,0.01-1.65c0.41-0.93,1.18-1.24,1.78-1.24c0.33,0,0.65,0.09,0.92,0.26c1.09,0.68,1.33,1.87,1,2.64
									c-0.21,0.38-0.52,0.68-0.95,0.85C268.51,356.73,268.17,356.79,267.85,356.79z"/>
							</g>
							<g id="XMLID_4358_">
								<path id="XMLID_4360_" style="fill:#E6E6D2;" d="M273.74,346.49c1.24,1.19,1.39,3.06,0.44,4.24
									c-0.93,1.18-2.76,1.45-4.21,0.54c-1.47-0.92-1.82-2.95-0.66-4.42C270.47,345.4,272.49,345.29,273.74,346.49z"/>
								<path id="XMLID_4359_" style="fill:#FFFFFF;" d="M271.83,350.72c-0.45,0-0.9-0.13-1.29-0.38c-0.43-0.27-0.72-0.7-0.8-1.22
									c-0.1-0.56,0.05-1.13,0.42-1.6c0.39-0.48,0.96-0.76,1.55-0.76c0.47,0,0.93,0.18,1.28,0.52c0.8,0.77,0.96,2.01,0.34,2.77
									C272.99,350.48,272.45,350.72,271.83,350.72z"/>
							</g>
							<g id="XMLID_4355_">
								<path id="XMLID_4357_" style="fill:#E6E6D2;" d="M279.06,341.64c1.04,1.36,0.89,3.25-0.27,4.28
									c-1.17,1.03-3.04,0.97-4.29-0.24c-1.24-1.18-1.22-3.23,0.15-4.43C276.01,340.06,278.01,340.27,279.06,341.64z"/>
								<path id="XMLID_4356_" style="fill:#FFFFFF;" d="M276.83,345.55c-0.57,0-1.13-0.23-1.57-0.65
									c-0.37-0.36-0.57-0.86-0.57-1.38c0.01-0.55,0.26-1.06,0.68-1.44c0.48-0.43,0.98-0.52,1.32-0.52c0.6,0,1.15,0.27,1.51,0.74
									c0.67,0.88,0.61,2.14-0.14,2.8C277.73,345.39,277.29,345.55,276.83,345.55z"/>
							</g>
						</g>
						<g id="XMLID_4347_">
							<path id="XMLID_4353_" style="fill:#B40000;" d="M281.76,381.18c-5.63,0-11.3-5.39-11.3-17.45c0-8.07,6.68-14.64,11.29-18.22
								c4.62,3.59,11.31,10.19,11.31,18.22C293.06,375.78,287.39,381.18,281.76,381.18z"/>
							<path id="XMLID_4350_" style="fill:#C80000;" d="M293.19,370.15c0.39-1.9,0.61-4.03,0.61-6.42c0-4.79-2.3-9.07-5.08-12.51
								l-0.47-0.56c-2.04-2.41-4.29-4.37-6.04-5.74l-0.46-0.35l-0.45,0.35c-2.03,1.58-4.21,3.52-6.12,5.79l-0.4,0.48
								c-2.87,3.52-5.06,7.76-5.06,12.54c0,2.39,0.22,4.52,0.62,6.42l0.17,0.69c0.9,3.8,2.55,6.56,4.54,8.38l0.52,0.44
								c1.88,1.51,4.04,2.25,6.19,2.25s4.31-0.74,6.19-2.25l0.51-0.43c2.01-1.82,3.65-4.6,4.55-8.41L293.19,370.15z M287.87,377.74
								l-1.64-4.22l-1.37,0.53l1.84,4.71c-1.53,1.12-3.23,1.67-4.93,1.67c-1.71,0-3.41-0.55-4.94-1.68l1.83-4.71l-1.37-0.53
								l-1.64,4.21c-1.55-1.57-2.84-3.84-3.62-6.88l4.19-2.56l-0.77-1.26l-3.77,2.3c-0.31-1.67-0.49-3.53-0.49-5.6
								c0-1.04,0.13-2.06,0.35-3.05l4.02,1.63l0.56-1.37l-4.2-1.7c0.77-2.4,2.07-4.6,3.57-6.55l1.94,4.05l1.33-0.64l-2.24-4.68
								c1.48-1.72,3.08-3.21,4.48-4.38v6.47h1.48v-6.47c1.41,1.18,3,2.66,4.5,4.39l-2.24,4.67l1.33,0.64l1.94-4.04
								c1.5,1.95,2.8,4.15,3.57,6.54l-4.2,1.7l0.56,1.37l4.03-1.63c0.22,0.99,0.35,2.01,0.35,3.05c0,2.08-0.18,3.94-0.49,5.61
								l-3.77-2.3l-0.77,1.26l4.2,2.56C290.71,373.89,289.43,376.17,287.87,377.74z"/>
							<path id="XMLID_4349_" style="fill:#DC0016;" d="M281.76,376.76c-3.31,0-6.88-4.08-6.88-13.02c0-4.91,3.59-9.36,6.87-12.42
								c3.29,3.07,6.89,7.54,6.89,12.42C288.64,372.68,285.07,376.76,281.76,376.76z"/>
							<polygon id="XMLID_4348_" style="fill:#FFFFFF;" points="277.68,352.84 278.23,356.18 281.58,356.73 278.23,357.28 
								277.68,360.63 277.13,357.28 273.78,356.73 277.13,356.18 							"/>
						</g>
						<path id="XMLID_4346_" style="fill:#FFCD00;" d="M288.92,324.26c0-3.95-3.2-7.15-7.15-7.15v14.31
							C285.71,331.41,288.92,328.21,288.92,324.26z"/>
						<path id="XMLID_4345_" style="fill:#FFDC00;" d="M282.98,303.63c-0.42,0-0.83,0-1.22,0v13.48h0.01c1.79,0,3.4,0.68,4.65,1.76
							c0.81-5.31,0.99-6.48,1.46-9.52c0.22-1.43-0.2-2.88-1.14-3.98C285.79,304.27,284.42,303.63,282.98,303.63z"/>
					</g>
				</g>
			</g>
		</g>
	</g>
	<g id="XMLID_173_">
		<path id="XMLID_192_" style="opacity:0.5;fill:#808080;enable-background:new    ;" d="M164.06,231.06
			c0.51-1.67,1.05-3.46,1.6-5.26c0,0-0.42,0-1.72,0l5.74-8.62l-4.64-7.35h-17.51l-0.07,0.11l0,0l-4.57,7.23l5.74,8.62
			c-0.57,0-1.12,0-1.72,0c0,0,0.75,2.46,1.6,5.26c-4.32,1.06-8.31,2.98-11.77,5.57l0,0c-5.45-4.09-12.22-6.51-19.54-6.51
			c-18.01,0-32.67,14.66-32.67,32.66c0,18.01,14.65,32.67,32.67,32.67c7.32,0,14.09-2.42,19.54-6.51c-0.03-0.02-0.06-0.05-0.1-0.08
			c5.47,4.13,12.28,6.59,19.65,6.59c18.01,0,32.66-14.65,32.66-32.66C188.95,247.45,178.33,234.56,164.06,231.06z M136.73,282.26
			c-4.98-5-8.06-11.88-8.06-19.48c0-7.59,3.08-14.48,8.06-19.48c4.99,5,8.06,11.88,8.06,19.47
			C144.8,270.39,141.72,277.25,136.73,282.26z M117.19,290.4c-15.24,0-27.62-12.38-27.62-27.62c0-15.22,12.38-27.61,27.62-27.61
			c5.82,0,11.21,1.81,15.67,4.89l0,0c-5.71,5.88-9.24,13.9-9.24,22.73c0,8.84,3.54,16.87,9.27,22.76c-0.01-0.01-0.02-0.02-0.03-0.03
			C128.4,288.59,123.01,290.4,117.19,290.4z M134.6,287.18c0.11,0.09,0.21,0.19,0.32,0.28C134.82,287.37,134.71,287.28,134.6,287.18
			z M138.68,284.04c0.43,0.35,0.88,0.67,1.32,1C139.56,284.71,139.11,284.39,138.68,284.04z M156.28,290.4
			c-5.82,0-11.21-1.82-15.67-4.9c5.72-5.88,9.23-13.88,9.23-22.72c0-8.81-3.51-16.83-9.23-22.71c2.79-1.93,5.96-3.35,9.36-4.15
			c0.55,1.81,0.96,3.14,0.96,3.14c1.63,0,3.49,0,5.35,0s3.71,0,5.35,0c0,0,0.37-1.22,0.95-3.14c12.2,2.86,21.31,13.81,21.31,26.86
			C183.9,278.01,171.51,290.4,156.28,290.4z"/>
		<g id="XMLID_3662_">
			<path id="XMLID_3677_" style="fill:#FFB805;" d="M121.28,260.03c0-18.01,14.65-32.66,32.66-32.66s32.66,14.65,32.66,32.66
				c0,18.01-14.65,32.66-32.66,32.66S121.28,278.04,121.28,260.03z M126.33,260.03c0,15.23,12.39,27.61,27.62,27.61
				s27.61-12.39,27.61-27.61c0-15.23-12.39-27.61-27.61-27.61C138.72,232.42,126.33,244.8,126.33,260.03z"/>
			<polygon id="XMLID_955_" style="fill:#AFEEFF;" points="140.55,214.44 153.94,234.55 167.34,214.44 			"/>
			<polygon id="XMLID_954_" style="opacity:0.3;fill:#AFEEFF;enable-background:new    ;" points="147.51,214.44 153.94,234.55 
				160.38,214.44 			"/>
			<polygon id="XMLID_953_" style="fill:#AFEEFF;" points="145.19,207.09 162.7,207.09 167.34,214.44 140.55,214.44 			"/>
			<polygon id="XMLID_952_" style="opacity:0.5;fill:#AFEEFF;enable-background:new    ;" points="147.51,214.44 153.95,207.09 
				160.38,214.44 			"/>
			<polygon id="XMLID_951_" style="opacity:0.5;fill:#AFEEFF;enable-background:new    ;" points="160.38,214.44 162.7,207.09 
				167.34,214.44 			"/>
			<polygon id="XMLID_950_" style="opacity:0.5;fill:#AFEEFF;enable-background:new    ;" points="147.51,214.44 145.12,207.2 
				140.55,214.44 			"/>
			<g id="XMLID_3667_">
				<path id="XMLID_949_" style="fill:#FFC805;" d="M148.6,236.31c3.27,0,7.43,0,10.7,0c0,0,2.01-6.63,4.03-13.26
					c0,0-3.01,0-18.76,0C144.56,223.05,148.6,236.31,148.6,236.31z"/>
			</g>
			<path id="XMLID_3665_" style="fill:#FFC805;" d="M82.18,260.02c0,18.01,14.65,32.67,32.67,32.67c7.32,0,14.09-2.42,19.54-6.51
				c-1.39-1.03-2.68-2.18-3.88-3.42c-4.46,3.08-9.85,4.89-15.67,4.89c-15.24,0-27.62-12.38-27.62-27.62
				c0-15.22,12.38-27.61,27.62-27.61c5.82,0,11.21,1.81,15.67,4.89c1.39,0.96,2.69,2.05,3.88,3.24c4.99,5,8.07,11.88,8.07,19.48
				c0,7.61-3.08,14.48-8.07,19.49c1.19,1.19,2.49,2.28,3.89,3.23c5.72-5.88,9.23-13.89,9.23-22.72c0-8.81-3.51-16.83-9.23-22.71
				c-1.2-1.25-2.5-2.4-3.89-3.43c-5.45-4.09-12.22-6.51-19.54-6.51C96.83,227.37,82.18,242.02,82.18,260.02z"/>
			<path id="XMLID_947_" style="fill:#FFD205;" d="M153.94,236.31c-1.86,0-3.71,0-5.35,0l-4.03-13.26c1.97,0,3.74,0,5.33,0
				c1.51,0,2.85,0,4.05,0V236.31z"/>
			<polygon id="XMLID_946_" style="fill:#FFFFFF;" points="159.97,210.82 159.42,214.16 156.08,214.71 159.42,215.26 159.97,218.6 
				160.52,215.26 163.86,214.71 160.52,214.16 			"/>
		</g>
	</g>
	<g id="XMLID_750_">
		<path id="XMLID_5005_" style="opacity:0.5;fill:#808080;enable-background:new    ;" d="M356.31,178.13
			c0-0.97-0.42-1.83-1.08-2.43c0.01-0.11,0.02-0.22,0.01-0.3c0.19-2.7-0.66-5.41-2.01-7.47c-2.72-4.18-6.51-6.68-10.15-8.72
			c-3.68-2.01-7.4-3.47-11.02-4.65c-14.51-4.61-27.08-5.86-35.81-6.46c-4.38-0.29-7.82-0.34-10.18-0.38
			c-2.33-0.01-3.57-0.01-3.57-0.01h-0.01c0,0-1.25,0-3.6,0.01c-2.35,0.05-5.79,0.09-10.17,0.38c-8.73,0.6-21.3,1.84-35.8,6.46
			c-3.62,1.19-7.34,2.65-11.02,4.66c-3.63,2.03-7.43,4.54-10.15,8.71c-0.67,1.05-1.2,2.21-1.58,3.5c-0.14,0.66-0.38,1.56-0.38,2.01
			l-0.07,0.82c0-0.1-0.02,0.26-0.01,0.27v0.12l0.01,0.26l0.02,0.51c0,0.09,0.02,0.18,0.03,0.27c-0.67,0.61-1.1,1.47-1.1,2.45
			c0,1.73,1.32,3.13,3.01,3.28c0.22,0.36,0.45,0.72,0.69,1.06c-0.24,0.49-0.39,1.04-0.39,1.63c0,2.08,1.68,3.76,3.76,3.76
			c0.55,0,1.07-0.12,1.54-0.34c0.14,0.11,0.28,0.23,0.43,0.34c-0.06,0.29-0.1,0.59-0.1,0.9c0,2.33,1.88,4.21,4.21,4.21
			c0.99,0,1.88-0.35,2.6-0.92c0.27,0.14,0.54,0.26,0.81,0.39c0.04,2.53,2.1,4.58,4.65,4.58c1.21,0,2.31-0.48,3.14-1.24
			c0.31,0.12,0.62,0.24,0.94,0.35c0.48,2.06,2.32,3.61,4.53,3.61c1.2,0,2.28-0.47,3.1-1.21c0.52,0.14,1.04,0.27,1.56,0.4
			c0.76,1.86,2.58,3.18,4.72,3.18c1.31,0,2.5-0.51,3.4-1.32c0.37,0.07,0.73,0.15,1.1,0.22c0.45,0.09,0.91,0.16,1.36,0.24
			c0.96,1.67,2.73,2.8,4.79,2.8c1.45,0,2.76-0.57,3.75-1.48c0.97,0.13,1.94,0.24,2.91,0.35c1.06,1.5,2.8,2.49,4.77,2.53
			c2.18,6.25,6.98,10.61,12.56,10.61s10.38-4.36,12.56-10.61c1.97-0.04,3.69-1.02,4.76-2.52c0.98-0.11,1.96-0.23,2.93-0.36
			c0.99,0.91,2.29,1.47,3.74,1.47c2.06,0,3.83-1.13,4.79-2.79c0.46-0.08,0.91-0.16,1.37-0.24c0.37-0.07,0.74-0.15,1.1-0.23
			c0.9,0.81,2.08,1.31,3.39,1.31c2.13,0,3.95-1.31,4.72-3.17c0.52-0.14,1.05-0.26,1.57-0.41c0.82,0.74,1.9,1.2,3.09,1.2
			c2.21,0,4.04-1.54,4.52-3.6c0.32-0.11,0.63-0.24,0.95-0.36c0.83,0.76,1.92,1.23,3.13,1.23c2.54,0,4.6-2.05,4.64-4.57
			c0.27-0.13,0.55-0.26,0.82-0.4c0.72,0.57,1.61,0.92,2.59,0.92c2.33,0,4.21-1.88,4.21-4.21c0-0.31-0.04-0.61-0.1-0.89
			c0.15-0.11,0.29-0.23,0.43-0.34c0.47,0.21,0.99,0.33,1.53,0.33c2.08,0,3.76-1.68,3.76-3.76c0-0.59-0.15-1.14-0.39-1.63
			c0.24-0.34,0.47-0.69,0.68-1.05C354.99,181.27,356.31,179.86,356.31,178.13z M214.5,169.58c2.12-3.38,5.51-5.83,8.9-7.76
			c3.42-1.94,6.98-3.4,10.46-4.6c6.97-2.39,13.64-3.8,19.58-4.75c5.94-0.96,11.17-1.46,15.48-1.75c4.31-0.3,7.71-0.36,10.03-0.41
			c2.3-0.01,3.53-0.02,3.55-0.02s1.26,0,3.57,0.02c2.31,0.05,5.7,0.11,10.02,0.41c4.31,0.29,9.54,0.78,15.48,1.75
			c5.94,0.95,12.6,2.37,19.58,4.75c3.48,1.2,7.04,2.66,10.46,4.6c3.39,1.93,6.78,4.37,8.9,7.76c1.02,1.63,1.57,3.5,1.45,5.43
			c-1.32,0.44-2.27,1.66-2.27,3.13c0,0.67,0.2,1.28,0.54,1.8c-0.11,0.16-0.21,0.32-0.32,0.47c-0.22-0.04-0.44-0.07-0.66-0.07
			c-2.08,0-3.76,1.68-3.76,3.76c0,0.23,0.03,0.45,0.07,0.67c-0.13,0.1-0.26,0.21-0.4,0.31c-0.59-0.32-1.26-0.51-1.98-0.51
			c-2.32,0-4.21,1.88-4.21,4.2c0,0.01,0,0.02,0,0.04c-0.19,0.09-0.38,0.18-0.57,0.27c-0.84-0.84-2-1.35-3.28-1.35
			c-2.56,0-4.63,2.06-4.65,4.61c-0.06,0.02-0.12,0.04-0.17,0.06c-0.84-1.18-2.22-1.95-3.77-1.95c-2.5,0-4.52,1.97-4.63,4.44
			c-0.04,0.01-0.08,0.02-0.12,0.03c-0.8-1.76-2.57-2.99-4.63-2.99c-2.8,0-5.07,2.26-5.1,5.06c-0.03,0-0.05,0.01-0.08,0.01
			c-0.05,0.01-0.11,0.02-0.16,0.03c-0.66-2.33-2.78-4.04-5.31-4.04c-3.06,0-5.54,2.48-5.55,5.54c-0.03,0-0.07,0.01-0.1,0.01
			c-0.16-0.99-0.56-1.89-1.15-2.66c1.23-0.9,2.46-1.95,3.65-3.14c5.73-5.74,8.35-12.42,5.84-14.92c-2.5-2.51-9.18,0.11-14.92,5.84
			c-0.63,0.63-1.22,1.28-1.77,1.92c-0.36-0.49-0.73-0.96-1.12-1.39c0.62-2.51,0.98-5.31,0.99-8.28c0-10.55-4.42-19.1-9.86-19.1
			c-5.44,0-9.85,8.55-9.85,19.1c0,2.97,0.36,5.77,0.98,8.27c-0.44,0.48-0.84,1-1.23,1.55c-0.59-0.7-1.22-1.4-1.91-2.08
			c-5.73-5.73-12.41-8.35-14.92-5.84c-2.51,2.5,0.11,9.18,5.84,14.92c1.24,1.24,2.52,2.32,3.8,3.25c-0.54,0.74-0.9,1.6-1.06,2.54
			c-0.03,0-0.07-0.01-0.1-0.01c-0.01-3.06-2.49-5.54-5.55-5.54c-2.54,0-4.65,1.72-5.31,4.04c-0.05-0.01-0.11-0.02-0.16-0.03
			c-0.03,0-0.05-0.01-0.08-0.01c-0.03-2.79-2.3-5.05-5.1-5.05c-2.06,0-3.83,1.23-4.63,2.99c-0.04-0.01-0.08-0.02-0.12-0.03
			c-0.12-2.47-2.14-4.44-4.64-4.44c-1.56,0-2.93,0.77-3.77,1.94c-0.06-0.02-0.12-0.04-0.18-0.06c-0.03-2.55-2.1-4.61-4.65-4.61
			c-1.28,0-2.43,0.52-3.28,1.35c-0.19-0.09-0.39-0.17-0.58-0.27c0-0.01,0-0.02,0-0.03c0-2.32-1.88-4.2-4.21-4.2
			c-0.72,0-1.39,0.2-1.98,0.51c-0.14-0.1-0.27-0.21-0.4-0.31c0.04-0.22,0.07-0.44,0.07-0.67c0-2.08-1.68-3.76-3.76-3.76
			c-0.23,0-0.45,0.03-0.67,0.07c-0.11-0.15-0.22-0.31-0.32-0.46c0.34-0.52,0.55-1.15,0.55-1.82c0-1.46-0.95-2.68-2.26-3.12
			C212.94,173.1,213.41,171.2,214.5,169.58z"/>
		<g id="XMLID_4735_">
			<path id="XMLID_4857_" style="fill:#FFB805;" d="M280.17,144.96c0,0,1.25,0,3.57,0.01c2.36,0.05,5.81,0.09,10.18,0.38
				c8.73,0.6,21.3,1.85,35.81,6.46c3.61,1.19,7.34,2.64,11.02,4.65c3.64,2.03,7.43,4.54,10.15,8.72c1.35,2.06,2.19,4.77,2.01,7.47
				c0.02,0.47-0.14,1.29-0.28,2.02c-0.16,0.72-0.39,1.31-0.62,1.96c-0.53,1.22-1.17,2.39-1.95,3.41c-3.12,4.13-7.32,6.88-11.62,9.17
				c-8.71,4.49-18.32,7.18-28.14,9.08c-9.85,1.86-19.98,2.87-30.14,3.07c-10.15-0.23-20.29-1.22-30.13-3.08
				c-9.83-1.9-19.43-4.59-28.15-9.08c-4.3-2.29-8.5-5.03-11.61-9.16c-1.53-2.06-2.72-4.61-2.85-7.37l-0.02-0.51l-0.01-0.26v-0.12
				c0-0.01,0.01-0.38,0.01-0.27l0.07-0.82c0-0.45,0.24-1.36,0.38-2.01c0.39-1.29,0.92-2.45,1.58-3.5c2.72-4.17,6.51-6.68,10.15-8.71
				c3.68-2.01,7.4-3.47,11.02-4.66c14.5-4.62,27.07-5.86,35.8-6.46c4.38-0.29,7.82-0.34,10.17-0.38
				C278.91,144.96,280.17,144.96,280.17,144.96S280.17,144.96,280.17,144.96z M280.16,147.54c0,0-1.23,0-3.55,0.02
				c-2.32,0.05-5.72,0.11-10.03,0.41c-4.31,0.29-9.55,0.78-15.48,1.75c-5.94,0.95-12.6,2.37-19.58,4.75
				c-3.48,1.2-7.04,2.66-10.46,4.6c-3.39,1.93-6.78,4.37-8.9,7.76c-2.23,3.33-1.91,7.84,0.81,11.15c2.6,3.37,6.46,5.92,10.53,7.98
				c8.25,4.1,17.62,6.59,27.2,8.28c9.61,1.66,19.54,2.47,29.46,2.54c9.93-0.06,19.85-0.88,29.46-2.54
				c9.58-1.69,18.96-4.18,27.21-8.28c4.07-2.07,7.93-4.61,10.53-7.99c1.29-1.69,2.16-3.58,2.27-5.55c0.16-1.98-0.4-3.92-1.46-5.6
				c-2.12-3.39-5.52-5.83-8.9-7.76c-3.42-1.94-6.98-3.4-10.46-4.6c-6.97-2.39-13.64-3.8-19.58-4.75
				c-5.94-0.96-11.17-1.46-15.48-1.75c-4.32-0.3-7.71-0.36-10.02-0.41C281.39,147.54,280.15,147.54,280.16,147.54L280.16,147.54z"/>
			<path id="XMLID_4856_" style="fill:#FFB805;" d="M268.15,180.91c5.73,5.73,8.35,12.42,5.84,14.92s-9.19-0.11-14.92-5.84
				c-5.73-5.74-8.35-12.42-5.84-14.92C255.74,172.56,262.42,175.17,268.15,180.91z"/>
			<path id="XMLID_4855_" style="fill:#F5F4E6;" d="M271.32,194.57c-2.25,0-6.43-1.9-10.68-6.15c-2.52-2.53-4.53-5.41-5.51-7.92
				c-0.81-2.08-0.74-3.46-0.33-3.88c0.27-0.27,0.81-0.3,1.12-0.3c2.18,0,6.45,1.92,10.68,6.15c5.47,5.47,6.89,10.75,5.84,11.8
				C272.17,194.53,271.62,194.57,271.32,194.57z"/>
			<path id="XMLID_4854_" style="fill:#FFFFFF;" d="M270.4,192.23c-1.78-0.44-4.85-2.02-8.2-5.37c-2.32-2.32-4.15-4.93-5.02-7.16
				c-0.15-0.39-0.26-0.72-0.33-1c1.85,0.47,4.91,2.07,8.18,5.33C268.51,187.51,269.97,190.61,270.4,192.23z"/>
			<path id="XMLID_4853_" style="fill:#FFB805;" d="M291.93,180.91c-5.73,5.73-8.35,12.42-5.84,14.92s9.19-0.11,14.92-5.84
				c5.73-5.74,8.35-12.42,5.84-14.92C304.34,172.56,297.66,175.17,291.93,180.91z"/>
			<path id="XMLID_4852_" style="fill:#F5F4E6;" d="M288.76,194.57c-0.3,0-0.86-0.04-1.12-0.3c-1.05-1.05,0.37-6.32,5.84-11.8
				c4.23-4.22,8.49-6.15,10.68-6.15c0.3,0,0.85,0.04,1.12,0.3c0.42,0.41,0.49,1.8-0.33,3.88c-0.98,2.51-2.99,5.39-5.51,7.92
				C295.19,192.67,291.02,194.57,288.76,194.57L288.76,194.57z"/>
			<path id="XMLID_4851_" style="fill:#FFFFFF;" d="M289.68,192.23c0.43-1.62,1.9-4.71,5.37-8.2c3.31-3.31,6.42-4.9,8.18-5.36
				c-0.07,0.29-0.18,0.63-0.34,1.03c-0.87,2.23-2.7,4.84-5.02,7.16C294.52,190.21,291.45,191.79,289.68,192.23z"/>
			<path id="XMLID_4850_" style="fill:#FCFAE8;" d="M298.59,196.74c0,3.31-2.69,6-6,6s-5.99-2.68-5.99-6c0-3.31,2.69-6,5.99-6
				C295.91,190.74,298.59,193.43,298.59,196.74z"/>
			<path id="XMLID_4849_" style="fill:#FFFFF2;" d="M309.69,195.78c0,3.06-2.48,5.55-5.55,5.55c-3.06,0-5.55-2.49-5.55-5.55
				c0-3.07,2.48-5.55,5.55-5.55C307.21,190.22,309.69,192.71,309.69,195.78z"/>
			<path id="XMLID_4848_" style="fill:#FCFAE8;" d="M319.89,194.28c0,2.82-2.28,5.1-5.1,5.1s-5.1-2.28-5.1-5.1s2.28-5.11,5.1-5.11
				C317.61,189.17,319.89,191.46,319.89,194.28z"/>
			<path id="XMLID_4847_" style="fill:#FFFFF2;" d="M328.83,192.35c0,2.57-2.08,4.65-4.66,4.65c-2.57,0-4.66-2.09-4.66-4.65
				c0-2.57,2.08-4.66,4.66-4.66C326.75,187.69,328.83,189.77,328.83,192.35z"/>
			<circle id="XMLID_4846_" style="fill:#FFFFF2;" cx="340.83" cy="186.02" r="4.21"/>
			<circle id="XMLID_4845_" style="fill:#FCFAE8;" cx="346.9" cy="181.35" r="3.76"/>
			<path id="XMLID_4844_" style="fill:#FFB805;" d="M270.3,173.16c0,10.55,4.42,19.1,9.86,19.1c5.44,0,9.85-8.55,9.85-19.1
				c0-10.55-4.42-19.1-9.86-19.1C274.72,154.06,270.3,162.61,270.3,173.16z"/>
			<path id="XMLID_4843_" style="fill:#F5F4E6;" d="M280.16,190.05c-3.62,0-7.65-6.93-7.65-16.89c0-9.95,4.03-16.89,7.64-16.89
				c3.62,0,7.65,6.94,7.65,16.89C287.81,183.11,283.78,190.05,280.16,190.05z"/>
			<path id="XMLID_4842_" style="fill:#FFFFFF;" d="M280.16,187.84c-1.58,0-5.44-5.15-5.44-14.68c0-9.54,3.86-14.68,5.44-14.68
				c1.58,0,5.44,5.14,5.44,14.68C285.6,182.69,281.74,187.84,280.16,187.84z"/>
			<circle id="XMLID_4841_" style="fill:#FFFFF2;" cx="350.66" cy="175.38" r="3.31"/>
			<path id="XMLID_4840_" style="fill:#FCFAE8;" d="M337.43,189.62c0,2.57-2.08,4.65-4.65,4.65s-4.66-2.09-4.66-4.65
				c0-2.57,2.08-4.66,4.66-4.66C335.35,184.96,337.43,187.05,337.43,189.62z"/>
			<path id="XMLID_4839_" style="fill:#FCFAE8;" d="M261.73,196.74c0,3.31,2.68,6,5.99,6s6-2.68,6-6c0-3.31-2.69-6-6-6
				S261.73,193.43,261.73,196.74z"/>
			<path id="XMLID_4838_" style="fill:#FFFFF2;" d="M250.63,195.78c0,3.06,2.48,5.55,5.55,5.55c3.07,0,5.55-2.49,5.55-5.55
				c0-3.07-2.48-5.55-5.55-5.55C253.11,190.22,250.63,192.71,250.63,195.78z"/>
			<path id="XMLID_4837_" style="fill:#FCFAE8;" d="M240.43,194.28c0,2.82,2.28,5.1,5.1,5.1s5.1-2.28,5.1-5.1s-2.28-5.11-5.1-5.11
				C242.71,189.17,240.43,191.46,240.43,194.28z"/>
			<path id="XMLID_4836_" style="fill:#FFFFF2;" d="M231.49,192.35c0,2.57,2.08,4.65,4.66,4.65c2.57,0,4.66-2.09,4.66-4.65
				c0-2.57-2.09-4.66-4.66-4.66C233.57,187.69,231.49,189.77,231.49,192.35z"/>
			<circle id="XMLID_4835_" style="fill:#FFFFF2;" cx="219.49" cy="186.02" r="4.21"/>
			<circle id="XMLID_4834_" style="fill:#FCFAE8;" cx="213.42" cy="181.35" r="3.76"/>
			<circle id="XMLID_4833_" style="fill:#FFFFF2;" cx="209.66" cy="175.38" r="3.31"/>
			<path id="XMLID_4747_" style="fill:#FCFAE8;" d="M222.89,189.62c0,2.57,2.08,4.65,4.65,4.65c2.57,0,4.66-2.09,4.66-4.65
				c0-2.57-2.08-4.66-4.66-4.66C224.97,184.96,222.89,187.05,222.89,189.62z"/>
			<path id="XMLID_4746_" style="fill:#FFB805;" d="M280.16,213.33c-7.61,0-13.8-8.11-13.8-18.07c0-9.97,6.19-18.07,13.8-18.07
				s13.81,8.1,13.81,18.07S287.77,213.33,280.16,213.33z"/>
			<path id="XMLID_4745_" style="fill:#B40012;" d="M290.65,195.26c0,8.15-4.7,14.76-10.49,14.76c-5.79,0-10.49-6.61-10.49-14.76
				s4.7-14.75,10.49-14.75C285.95,180.51,290.65,187.12,290.65,195.26z"/>
			<g id="XMLID_4741_">
				<rect id="XMLID_4744_" x="279.33" y="180.51" style="fill:#C80014;" width="1.66" height="29.51"/>
				
					<rect id="XMLID_4743_" x="279.34" y="183.17" transform="matrix(-0.7082 -0.706 0.706 -0.7082 340.7318 531.3361)" style="fill:#C80014;" width="1.66" height="24.18"/>
				
					<rect id="XMLID_4742_" x="268.07" y="194.43" transform="matrix(-0.7073 -0.7069 0.7069 -0.7073 340.2917 531.4097)" style="fill:#C80014;" width="24.18" height="1.66"/>
			</g>
			<path id="XMLID_4740_" style="fill:#D20015;" d="M280.16,205.6c-2.87,0-6.07-4.25-6.07-10.34s3.2-10.34,6.07-10.34
				s6.07,4.24,6.07,10.34C286.23,201.35,283.03,205.6,280.16,205.6z"/>
			<path id="XMLID_4737_" style="fill:#C80014;" d="M280.16,211.12c-6.39,0-11.6-7.12-11.6-15.86c0-8.75,5.2-15.86,11.6-15.86
				c6.39,0,11.6,7.11,11.6,15.86S286.55,211.12,280.16,211.12z M280.16,181.61c-5.18,0-9.39,6.12-9.39,13.65s4.21,13.65,9.39,13.65
				c5.18,0,9.39-6.12,9.39-13.65C289.55,187.73,285.34,181.61,280.16,181.61z"/>
			<polygon id="XMLID_4736_" style="fill:#FFFFFF;" points="275.92,182.32 276.71,187.06 281.45,187.84 276.71,188.62 
				275.92,193.36 275.14,188.62 270.4,187.84 275.14,187.06 			"/>
		</g>
	</g>
	<g id="XMLID_752_">
		<g id="XMLID_751_" style="opacity:0.5;">
			<circle id="XMLID_5022_" style="fill:#808080;" cx="447.48" cy="205.53" r="8.37"/>
			<path id="XMLID_5025_" style="fill:#808080;" d="M465.24,274.65c0-13.48-13.72-37.9-17.04-43.62v-3.68
				c0.84-0.3,1.44-1.09,1.44-2.03s-0.6-1.73-1.44-2.03v-1.56h-0.66c2.14-0.03,3.86-1.77,3.86-3.92c0-2.17-1.76-3.92-3.92-3.92
				c-2.17,0-3.93,1.76-3.93,3.92c0,2.15,1.73,3.89,3.86,3.92h-0.67v1.56c-0.83,0.3-1.43,1.09-1.43,2.02c0,0.93,0.6,1.72,1.43,2.02
				v3.7c-3.34,5.75-17.03,30.14-17.03,43.6c0,13.72,7.23,24.36,17.76,24.36l0,0l0,0c0.17,0,0.34-0.03,0.51-0.03
				c3.09-0.1,5.89-1.1,8.28-2.86c0.34-0.25,0.66-0.53,0.99-0.81c0.16-0.13,0.32-0.25,0.47-0.39
				C462.42,290.6,465.24,283.23,465.24,274.65z M457.47,270.39c-0.28,4.23-1.81,7.82-4.2,10.02c-0.22,0.2-0.45,0.38-0.68,0.56
				c-0.05,0.04-0.09,0.08-0.14,0.12c-1.34,0.98-2.91,1.54-4.63,1.61c-0.11,0-0.22,0.02-0.34,0.02c-5.95,0-10.04-6.01-10.04-13.77
				c0-8.67,10.04-25.35,10.04-25.35s10.04,16.68,10.04,25.35C457.52,269.44,457.5,269.92,457.47,270.39z M446.41,225.33
				c0-0.59,0.48-1.07,1.07-1.07s1.07,0.48,1.07,1.07c0,0.59-0.48,1.07-1.07,1.07S446.41,225.92,446.41,225.33z"/>
			<circle id="XMLID_5027_" style="fill:#808080;" cx="407.09" cy="205.53" r="8.37"/>
			<path id="XMLID_5030_" style="fill:#808080;" d="M407.81,227.36c0.84-0.3,1.44-1.09,1.44-2.03s-0.6-1.73-1.44-2.03v-1.56h-0.66
				c2.14-0.03,3.86-1.77,3.86-3.92c0-2.17-1.76-3.92-3.92-3.92c-2.17,0-3.93,1.76-3.93,3.92c0,2.15,1.73,3.89,3.86,3.92h-0.67v1.56
				c-0.83,0.3-1.43,1.09-1.43,2.02c0,0.93,0.6,1.72,1.43,2.02v3.7c-3.34,5.75-17.03,30.14-17.03,43.6
				c0,13.72,7.23,24.36,17.76,24.36l0,0l0,0c0.17,0,0.34-0.03,0.51-0.03c3.09-0.1,5.89-1.1,8.28-2.86c0.34-0.25,0.66-0.53,0.99-0.81
				c0.16-0.13,0.32-0.25,0.47-0.39c4.69-4.32,7.52-11.7,7.52-20.27c0-13.48-13.72-37.9-17.04-43.62L407.81,227.36L407.81,227.36z
				 M406.02,225.33c0-0.59,0.48-1.07,1.07-1.07s1.07,0.48,1.07,1.07c0,0.59-0.48,1.07-1.07,1.07
				C406.5,226.4,406.02,225.92,406.02,225.33z M417.08,270.39c-0.28,4.23-1.81,7.82-4.2,10.02c-0.22,0.2-0.45,0.38-0.68,0.56
				c-0.05,0.04-0.09,0.08-0.14,0.12c-1.34,0.98-2.91,1.54-4.63,1.61c-0.11,0-0.22,0.02-0.34,0.02c-5.95,0-10.04-6.01-10.04-13.77
				c0-8.67,10.04-25.35,10.04-25.35s10.04,16.68,10.04,25.35C417.13,269.44,417.11,269.92,417.08,270.39z"/>
		</g>
		<g id="XMLID_3189_">
			<g id="XMLID_3244_">
				<circle id="XMLID_749_" style="fill:#F0F0F0;" cx="445.14" cy="202.78" r="8.37"/>
				<circle id="XMLID_748_" style="fill:#C8C8C8;" cx="445.13" cy="202.78" r="3.93"/>
				<circle id="XMLID_747_" style="fill:#F0F0F0;" cx="445.13" cy="215.07" r="3.93"/>
				<rect id="XMLID_746_" x="444.4" y="224.19" style="fill:#D2D2D2;" width="1.45" height="4.6"/>
				<rect id="XMLID_745_" x="444.4" y="218.99" style="fill:#D2D2D2;" width="1.45" height="1.97"/>
				<path id="XMLID_3298_" style="fill:#D2D2D2;" d="M445.14,227.05c0,0-17.77,29.51-17.77,44.85c0,13.72,7.23,24.36,17.76,24.36
					c10.54,0,17.77-10.64,17.77-24.36C462.9,256.56,445.13,227.05,445.14,227.05z M445.13,279.97c-5.95,0-10.04-6.01-10.04-13.77
					c0-8.67,10.04-25.35,10.04-25.35s10.04,16.68,10.04,25.35C455.18,273.96,451.09,279.97,445.13,279.97z"/>
				<path id="XMLID_3292_" style="fill:#EAEAEA;" d="M445.13,294.81c-9.45,0-16.31-9.63-16.31-22.91c0-12.41,12.3-34.94,16.31-41.95
					c4.02,7.03,16.31,29.56,16.31,41.95C461.45,285.17,454.59,294.81,445.13,294.81z M443.89,240.11
					c-0.42,0.7-10.25,17.13-10.25,26.1c0,8.82,4.83,15.22,11.49,15.22s11.5-6.4,11.5-15.22c0-8.62-9.18-24.3-10.23-26.06l-1.27-2.32
					L443.89,240.11z"/>
				<path id="XMLID_740_" style="fill:#E8E8E8;" d="M455.18,266.21c0,7.75-4.09,13.76-10.04,13.77v16.29
					c10.54,0,17.77-10.64,17.77-24.36c0-15.34-17.77-44.85-17.77-44.85v13.81C445.13,240.86,455.18,257.54,455.18,266.21z"/>
				<path id="XMLID_739_" style="fill:#FCFCFC;" d="M446.4,240.14c1.05,1.76,10.23,17.44,10.23,26.06c0,8.82-4.83,15.22-11.5,15.22
					v13.38c9.45,0,16.31-9.64,16.31-22.91c0-12.4-12.29-34.92-16.31-41.95v7.89L446.4,240.14z"/>
				<path id="XMLID_738_" style="fill:#FFFFFF;" d="M446.59,282.79c6.74-0.84,11.5-7.56,11.5-16.59c0-9.02-9.37-25.01-10.43-26.81
					l-1.06-1.94v-1.89c5.07,9.41,13.4,26.39,13.4,36.33c0,11.72-5.55,20.41-13.4,21.36v-10.46H446.59z"/>
				<path id="XMLID_737_" style="fill:#D2D2D2;" d="M445.13,292.03c8.68,0,13.33-8.78,12.81-16.21c0,4.75-5.89,9.81-12.81,9.81
					c-6.92,0-12.81-4.38-12.81-9.81C431.81,283.25,436.46,292.03,445.13,292.03z"/>
				<path id="XMLID_3272_" style="fill:#D2D2D2;" d="M445.14,224.74c-1.19,0-2.16-0.97-2.16-2.16s0.97-2.16,2.16-2.16
					s2.16,0.97,2.16,2.16S446.33,224.74,445.14,224.74z M445.14,221.51c-0.59,0-1.07,0.48-1.07,1.07c0,0.59,0.48,1.07,1.07,1.07
					s1.07-0.48,1.07-1.07C446.2,221.99,445.73,221.51,445.14,221.51z"/>
				<g id="XMLID_3245_">
					<circle id="XMLID_734_" style="fill:#50C2DC;" cx="445.14" cy="202.78" r="6.55"/>
					<rect id="XMLID_733_" x="444.54" y="196.24" style="fill:#5FE1F5;" width="1.19" height="13.1"/>
					<rect id="XMLID_732_" x="438.59" y="202.19" style="fill:#5FE1F5;" width="13.1" height="1.19"/>
					
						<rect id="XMLID_731_" x="438.6" y="202.21" transform="matrix(-0.7074 -0.7069 0.7069 -0.7074 616.6651 660.9183)" style="fill:#5FE1F5;" width="13.09" height="1.19"/>
					
						<rect id="XMLID_730_" x="444.51" y="196.25" transform="matrix(-0.707 -0.7072 0.7072 -0.707 616.3797 660.9446)" style="fill:#5AD7F0;" width="1.19" height="13.09"/>
					<circle id="XMLID_729_" style="fill:#64EBFF;" cx="445.14" cy="202.78" r="4.06"/>
					<polygon id="XMLID_728_" style="fill:#FFFFFF;" points="442.27,197.54 442.61,199.58 444.64,199.92 442.61,200.25 
						442.27,202.29 441.94,200.25 439.9,199.92 441.94,199.58 					"/>
				</g>
			</g>
			<g id="XMLID_3190_">
				<circle id="XMLID_727_" style="fill:#F0F0F0;" cx="404.75" cy="202.78" r="8.37"/>
				<circle id="XMLID_726_" style="fill:#C8C8C8;" cx="404.74" cy="202.78" r="3.93"/>
				<circle id="XMLID_725_" style="fill:#F0F0F0;" cx="404.74" cy="215.07" r="3.93"/>
				<rect id="XMLID_724_" x="404.01" y="224.19" style="fill:#D2D2D2;" width="1.45" height="4.6"/>
				<rect id="XMLID_723_" x="404.01" y="218.99" style="fill:#D2D2D2;" width="1.45" height="1.97"/>
				<path id="XMLID_3226_" style="fill:#D2D2D2;" d="M404.75,227.05c0,0-17.77,29.51-17.77,44.85c0,13.72,7.23,24.36,17.76,24.36
					c10.54,0,17.77-10.64,17.77-24.36C422.51,256.56,404.74,227.05,404.75,227.05z M404.74,279.97c-5.95,0-10.04-6.01-10.04-13.77
					c0-8.67,10.04-25.35,10.04-25.35s10.04,16.68,10.04,25.35C414.79,273.96,410.7,279.97,404.74,279.97z"/>
				<path id="XMLID_3221_" style="fill:#EAEAEA;" d="M404.74,294.81c-9.45,0-16.31-9.63-16.31-22.91c0-12.41,12.3-34.94,16.31-41.95
					c4.02,7.03,16.31,29.56,16.31,41.95C421.06,285.17,414.2,294.81,404.74,294.81z M403.5,240.11c-0.42,0.7-10.25,17.13-10.25,26.1
					c0,8.82,4.83,15.22,11.49,15.22s11.5-6.4,11.5-15.22c0-8.62-9.18-24.3-10.23-26.06l-1.27-2.32L403.5,240.11z"/>
				<path id="XMLID_718_" style="fill:#E8E8E8;" d="M414.79,266.21c0,7.75-4.09,13.76-10.04,13.77v16.29
					c10.54,0,17.77-10.64,17.77-24.36c0-15.34-17.77-44.85-17.77-44.85v13.81C404.74,240.86,414.79,257.54,414.79,266.21z"/>
				<path id="XMLID_717_" style="fill:#FCFCFC;" d="M406.01,240.14c1.05,1.76,10.23,17.44,10.23,26.06c0,8.82-4.83,15.22-11.5,15.22
					v13.38c9.45,0,16.31-9.64,16.31-22.91c0-12.4-12.29-34.92-16.31-41.95v7.89L406.01,240.14z"/>
				<path id="XMLID_716_" style="fill:#FFFFFF;" d="M406.2,282.79c6.74-0.84,11.5-7.56,11.5-16.59c0-9.02-9.37-25.01-10.43-26.81
					l-1.06-1.94v-1.89c5.07,9.41,13.4,26.39,13.4,36.33c0,11.72-5.55,20.41-13.4,21.36v-10.46H406.2z"/>
				<path id="XMLID_715_" style="fill:#D2D2D2;" d="M404.74,292.03c8.68,0,13.33-8.78,12.81-16.21c0,4.75-5.89,9.81-12.81,9.81
					c-6.92,0-12.81-4.38-12.81-9.81C391.42,283.25,396.07,292.03,404.74,292.03z"/>
				<path id="XMLID_3206_" style="fill:#D2D2D2;" d="M404.75,224.74c-1.19,0-2.16-0.97-2.16-2.16s0.97-2.16,2.16-2.16
					s2.16,0.97,2.16,2.16S405.94,224.74,404.75,224.74z M404.75,221.51c-0.59,0-1.07,0.48-1.07,1.07c0,0.59,0.48,1.07,1.07,1.07
					s1.07-0.48,1.07-1.07C405.81,221.99,405.34,221.51,404.75,221.51z"/>
				<g id="XMLID_3192_">
					<circle id="XMLID_712_" style="fill:#50C2DC;" cx="404.75" cy="202.78" r="6.55"/>
					<rect id="XMLID_711_" x="404.15" y="196.24" style="fill:#5FE1F5;" width="1.19" height="13.1"/>
					<rect id="XMLID_710_" x="398.2" y="202.19" style="fill:#5FE1F5;" width="13.1" height="1.19"/>
					
						<rect id="XMLID_709_" x="398.21" y="202.21" transform="matrix(-0.7074 -0.7069 0.7069 -0.7074 547.7033 632.3638)" style="fill:#5FE1F5;" width="13.09" height="1.19"/>
					
						<rect id="XMLID_708_" x="404.12" y="196.24" transform="matrix(-0.707 -0.7072 0.7072 -0.707 547.4384 632.379)" style="fill:#5AD7F0;" width="1.19" height="13.09"/>
					<circle id="XMLID_707_" style="fill:#64EBFF;" cx="404.75" cy="202.78" r="4.06"/>
					<polygon id="XMLID_706_" style="fill:#FFFFFF;" points="401.88,197.54 402.22,199.58 404.25,199.92 402.22,200.25 
						401.88,202.29 401.55,200.25 399.51,199.92 401.55,199.58 					"/>
				</g>
			</g>
		</g>
	</g>
</g>
</svg>
