<?xml version="1.0" encoding="utf-8"?>
<!-- Generator: Adobe Illustrator 17.0.0, SVG Export Plug-In . SVG Version: 6.00 Build 0)  -->
<!DOCTYPE svg PUBLIC "-//W3C//DTD SVG 1.1//EN" "http://www.w3.org/Graphics/SVG/1.1/DTD/svg11.dtd">
<svg version="1.1" id="Calque_1" xmlns="http://www.w3.org/2000/svg" xmlns:xlink="http://www.w3.org/1999/xlink" x="0px" y="0px"
	 width="560px" height="560px" viewBox="0 0 560 560" style="enable-background:new 0 0 560 560;" xml:space="preserve">
<path style="fill:#595AA3;" d="M209.99,518.23l-82.64,26.24c-15.42,4.9-32.05-3.71-36.95-19.13L30.45,336.57
	c-3.92-12.33,0.8-25.43,10.74-32.69c2.49-1.82,5.31-3.28,8.4-4.26l0.42-0.13l18.21-5.78l45.1-14.32c0.01,0,0.02,0,0.03-0.01l18.89-6
	c15.42-4.9,32.05,3.71,36.95,19.13l59.95,188.77C234.02,496.7,225.41,513.33,209.99,518.23z"/>
<path style="fill:#DBDFF0;" d="M205.23,514.34l-76.24,24.21c-13.1,4.16-27.22-3.16-31.38-16.26l-31.57-99.4l-4.38-13.8l-3.51-11.06
	L45.43,358l-6.28-19.78l-1.05-3.32c-4.16-13.1,3.16-27.22,16.25-31.38l15.48-4.92l23.65-7.51l37.11-11.78
	c6.33-2.01,12.89-1.34,18.45,1.36c2.32,1.13,4.47,2.61,6.36,4.4c2.05,1.95,3.79,4.26,5.1,6.87c0.58,1.15,1.07,2.36,1.47,3.62
	l59.51,187.4C225.64,496.05,218.33,510.17,205.23,514.34z"/>
<path style="fill:#595AA3;" d="M116.43,289.18l-45.1,14.32c-2.7,0.86-5.6-0.65-6.46-3.34l0,0c-0.86-2.7,0.65-5.6,3.34-6.46
	l45.1-14.32c2.7-0.86,5.6,0.65,6.46,3.34l0,0C120.63,285.42,119.13,288.33,116.43,289.18z"/>
<g>
	<path style="fill:#CF852B;" d="M149.43,320.9L132,326.42l0,0c-7.81-10.44-20.14-15.64-31.44-12.06
		c-11.29,3.58-18.38,14.93-18.75,27.96l0,0l-17.43,5.53l20.31,64.09l85.05-26.96L149.43,320.9z M101.71,317.99
		c9.58-3.04,20,1.03,26.96,9.48l0,0l-43.54,13.8C85.96,330.36,92.13,321.03,101.71,317.99z M69.03,350.82l12.91-4.09l0,0l3.16-1l0,0
		L147.33,326l17.76,56.03l-78.3,24.82L69.03,350.82z"/>
	
		<rect x="77.91" y="338.81" transform="matrix(0.9533 -0.3021 0.3021 0.9533 -105.2213 52.4732)" style="fill:#CF852B;" width="78.19" height="55.11"/>
</g>
<g style="opacity:0.3;">
	<path style="fill:#575BA3;" d="M177.29,408.79L177.29,408.79c-0.71-2.23-3.11-3.47-5.33-2.77L95,430.41
		c-2.23,0.71-3.47,3.11-2.77,5.33s3.11,3.47,5.33,2.77l76.95-24.39C176.75,413.42,177.99,411.02,177.29,408.79z"/>
	<path style="fill:#575BA3;" d="M183.92,429.71c-0.71-2.23-3.11-3.47-5.33-2.77l-76.95,24.39c-2.23,0.71-3.47,3.11-2.77,5.33
		c0.71,2.23,3.11,3.47,5.33,2.77l76.95-24.39C183.38,434.34,184.62,431.94,183.92,429.71z"/>
	<path style="fill:#575BA3;" d="M191.19,452.66L191.19,452.66c-0.71-2.23-3.11-3.47-5.33-2.77l-76.95,24.39
		c-2.23,0.71-3.47,3.11-2.77,5.33c0.71,2.23,3.11,3.47,5.33,2.77L188.43,458C190.65,457.29,191.9,454.89,191.19,452.66z"/>
	<path style="fill:#575BA3;" d="M138.96,509.33l-17.21,5.46c-2.23,0.71-3.47,3.11-2.77,5.33c0.71,2.23,3.11,3.47,5.33,2.77
		l17.21-5.46c2.23-0.71,3.47-3.11,2.77-5.33C143.58,509.87,141.18,508.63,138.96,509.33z"/>
	<path style="fill:#575BA3;" d="M204.03,493.17c-0.71-2.23-3.11-3.47-5.33-2.77l-17.21,5.46c-2.23,0.71-3.47,3.11-2.77,5.33
		c0.71,2.23,3.11,3.47,5.33,2.77l17.21-5.46C203.49,497.79,204.73,495.39,204.03,493.17z"/>
</g>
<g>
	<polygon style="fill:#373484;" points="114.11,239.21 88.15,210.52 167.86,141.72 192.17,168.6 	"/>
	<polygon style="fill:#595AA3;" points="136.7,264.18 96.66,219.91 172.36,146.71 211.36,189.82 	"/>
	<g>
		<path style="fill:#595AA3;" d="M209.61,157.64c-5.48-6.06-13.84-4.34-19.98-1.75c-6.81,2.87-12.26,7.26-12.49,7.45
			c-0.36,0.29-0.51,0.73-0.33,0.99c0.18,0.25,0.61,0.22,0.97-0.07c0.05-0.04,5.44-4.39,11.96-7.12c8.62-3.62,15.06-2.85,19.15,2.27
			c2.77,3.48,3.37,7.43,1.77,11.73c-3,8.06-12.76,14.83-12.86,14.9c-0.38,0.26-0.58,0.7-0.44,0.99c0.14,0.29,0.55,0.31,0.93,0.05
			c0.43-0.29,10.49-7.26,13.73-15.97c1.76-4.74,1.14-9.04-1.84-12.79C209.99,158.07,209.8,157.85,209.61,157.64z"/>
	</g>
	<polygon style="opacity:0.5;fill:#2F2C60;" points="170.47,144.76 92.49,215.31 96.66,219.91 172.36,146.71 	"/>
</g>
<g>
	<polygon style="fill:#A2431D;" points="481.11,366.7 424.5,388.88 398.76,312.58 451.78,291.81 	"/>
	<polygon style="fill:#CF852B;" points="530.43,347.49 443.08,381.7 408.59,308.73 493.65,275.41 	"/>
	<g>
		<path style="fill:#A2431D;" d="M447.65,279.47c-8.41,3-10.52,11.13-10.79,17.54c-0.3,7.11,1.52,13.48,1.59,13.75
			c0.12,0.42,0.49,0.7,0.81,0.62c0.33-0.08,0.49-0.49,0.37-0.91c-0.02-0.06-1.81-6.36-1.51-13.17c0.39-8.99,4.06-14.58,10.92-16.62
			c4.66-1.38,8.78-0.63,12.25,2.22c6.5,5.34,8.67,16.4,8.69,16.51c0.08,0.43,0.42,0.75,0.76,0.72c0.34-0.03,0.55-0.4,0.47-0.82
			c-0.09-0.48-2.32-11.87-9.34-17.65c-3.82-3.14-8.3-3.98-13.32-2.49C448.25,279.26,447.95,279.36,447.65,279.47z"/>
	</g>
	<polygon style="fill:#903719;" points="404.65,310.35 433.95,385.17 443.04,381.61 408.59,308.73 	"/>
</g>
<g>
	<polygon style="fill:#A2431D;" points="202.32,248.09 141.6,251.16 141.39,170.64 198.26,167.77 	"/>
	<polygon style="fill:#CF852B;" points="255.18,245.52 161.5,250.25 151.93,170.11 243.17,165.5 	"/>
	<g>
		<path style="fill:#A2431D;" d="M198.26,154.75c-8.92,0.17-13.51,7.22-15.8,13.21c-2.54,6.65-2.84,13.26-2.85,13.54
			c-0.02,0.44,0.24,0.82,0.58,0.84c0.34,0.03,0.62-0.3,0.64-0.74c0-0.07,0.3-6.61,2.74-12.97c3.22-8.4,8.48-12.54,15.62-12.3
			c4.85,0.17,8.53,2.18,10.91,5.99c4.47,7.13,3.02,18.3,3,18.41c-0.06,0.43,0.16,0.85,0.49,0.93c0.33,0.08,0.65-0.2,0.71-0.63
			c0.07-0.49,1.57-11.99-3.26-19.7c-2.63-4.19-6.61-6.41-11.84-6.59C198.89,154.74,198.58,154.74,198.26,154.75z"/>
	</g>
	<polygon style="fill:#903719;" points="147.68,170.4 151.74,250.65 161.49,250.16 151.93,170.11 	"/>
</g>
<g>
	<polygon style="fill:#DCABB0;" points="427.39,395.5 461.11,393.09 459.98,401.7 434.16,411.62 	"/>
	<path style="fill:#C4541C;" d="M448.3,393.27l12.07-3.81l20.52,30.01C480.89,419.47,462.15,421.02,448.3,393.27z"/>
	<polygon style="fill:#DCABB0;" points="322.09,490.13 333.92,521.65 325.24,522.06 309.64,498.87 	"/>
	<path style="fill:#C4541C;" d="M331.46,509.08l5.9,11.2l-25.89,25.52C311.47,545.8,306.62,527.63,331.46,509.08z"/>
	<path style="fill:#373482;" d="M297.8,316.98c0,0-43.27,66.07-42.41,96.1c0,0,3.35,26.99,57.16,97.66l16.51-12.99
		c0,0-12.79-64.42-35.16-87.06c0,0,53.41-52.27,54.95-75.08C350.39,312.8,297.8,316.98,297.8,316.98z"/>
	<path style="fill:#575BA3;" d="M442.82,410.04c-66.04,30.39-100.81,27.94-100.81,27.94c-42.4-28.89-26.87-115.7-26.87-115.7
		s22.33-18.91,36.93-13.34c2.69,1.02,5.11,2.88,7.09,5.83c8.19,12.23,3.53,42.58-0.82,62.63c-2.3,10.6-4.06,26.63-4.25,27.29l0,0
		c34.21-12.42,85.2-10.72,85.2-10.72S442.85,410.03,442.82,410.04z"/>
	<path style="fill:#51539E;" d="M359.17,314.77c8.19,12.24,3.53,42.58-0.82,62.64l-4.71,18.98c2.02-7.89-12.41-79.51-12.41-79.51
		l10.86-7.94C354.77,309.97,357.19,311.82,359.17,314.77z"/>
	<path style="fill:#C4541C;" d="M328.52,266.77c0,0-29.21-30.3-54.19-48.74c-1.71-4.62-2.64-10.76-2.64-10.76
		c-1.4,2.56-1.19,5.86-0.72,8.34c-6.79-4.78-13.13-8.5-18.34-10.28c-1.75-10.17,8.03-20.85,8.03-20.85
		c-8.4,3.41-11.81,14.61-12.92,19.75c-0.9-0.07-1.74-0.05-2.52,0.08c0,0-0.84-34.33,51.59-34.33c20.4,0,17.48-35.44,46.51-32.9
		c0,0,31.71,6.2,25.79,33.85c-5.92,27.65,3.81,33.85,7.19,40.05C379.68,217.19,365.3,260.57,328.52,266.77z"/>
	<path style="fill:#CE939A;" d="M342.14,268.09c6.71-13.42,12.54-56.74,12.54-56.74s-14.77-10.28-9.49-29.9l-20.51,0.53
		c0,0-0.26,19.84-10.31,21.54l-7-1.32c0,0-41.09,22.74-9.56,114.78l65.69,3.58C363.49,320.56,335.42,281.52,342.14,268.09z"/>
	<path style="fill:#DCABB0;" d="M448.75,284.62c4.62-2.25,3.6-1.23,6.91-2.76c3.32-1.53-0.41-4.73-0.41-4.73
		c-9.61-7.09-17.77,0.12-17.77,0.12c-8.6-3.44-58.03-19.27-58.03-19.27c-4.87-20.03-17.59-48.79-17.59-48.79
		s-28.94-3.65-26.92,11.35c2.02,14.99,30.74,52.75,34.59,55.72c3.85,2.97,66.29,8.54,66.29,8.54
		C438.76,287.01,444.13,286.87,448.75,284.62z"/>
	<path style="fill:#DCABB0;" d="M192.7,148.69c0.23,3.64,3.54,3.77,3.76,8.91c0.22,5.14,2.17,6.51,5.53,8.05l55.39,54.92
		c16.52,6.8,64.76,8.74,64.76,8.74l-7.39-25.53c-11.9-6.14-55.89-2.94-55.89-2.94c-19.55-19.71-51.03-40.25-51.03-40.25
		s3.54-10.65-8.75-14.46C199.07,146.12,192.47,145.04,192.7,148.69z"/>
	<path style="fill:#E6C86D;" d="M345.31,277.84c0.23-8.91,10.28-42.97,10.7-43.81c0.06-0.12-5.49-26.48-5.49-26.48
		c-0.08-1.38-1.48-2.38-1.48-2.38c-26.7,9.75-34.05-1.79-34.05-1.79c-0.03-0.03-0.07-0.04-0.12-0.05c-0.86-0.33-6.12-2.32-8.71-3.06
		c-2.83-0.81-43.99-0.21-45.58-0.04c-1.59,0.18-1.96-0.4-1.96-0.4l-13.4-11.46c0.62,3.34-7.28,7.34-12.42,9.57
		c-2.43,1.05-4.25,1.71-4.25,1.71s4.45,5.55,12.48,12.39c8.03,6.84,10.51,7.43,10.51,7.43s31.63,8.26,33.4,8.61
		c0.4,0.08,0.66,0.35,0.84,0.72c0.61,1.3,0.12,3.82,0.12,3.82l0,0c-2.79,10.3-1.93,21.37-0.98,25.64
		c1.27,5.72,0.64,33.69,5.09,47.36c4.45,13.67,17.17,16.85,29.56,14.3c12.4-2.54,30.2,5.09,36.87,8.58
		c6.08,3.19,13.47,3.47,14.98,0.13c0.15-0.33,0.24-0.69,0.27-1.09C372.01,323.14,345.15,283.93,345.31,277.84z"/>
	<path style="opacity:0.2;fill:#C68216;" d="M371.7,327.59c-0.03,0.4-0.12,0.76-0.27,1.09c-16.38-2.19-38.52-41.54-41.69-47.07
		c-3.39-5.93,17.17-46.62,22.25-48.32c1.65-0.55,3.17-0.25,4.47,0.4c-0.23,0.1-0.38,0.22-0.44,0.34
		c-0.43,0.85-10.47,34.9-10.7,43.81C345.15,283.93,372.01,323.14,371.7,327.59z"/>
	<path style="fill:#DCABB0;" d="M317.75,185.66c0,0,24.41,12.37,31.88-2.95c7.47-15.32,15.65-24.05,0.38-32.59
		c-15.27-8.55-21.17-4.19-24.91,0.32C321.36,154.95,311.59,182.05,317.75,185.66z"/>
	<path style="fill:#C4541C;" d="M336.89,149.98c0,0,7.4,7.36,5.23,14.35c-2.18,6.99,1.34,20.91,10.88,22.5
		c9.54,1.59,20.88-30.65,8.33-36.85c-12.55-6.2-33.06-9.26-39.25-1.48c-6.19,7.79-3.81,17.63-3.81,17.63
		S326.85,149.51,336.89,149.98z"/>
	<path style="fill:#E6C86D;" d="M349.06,205.17c0,0,8.57,1.96,12.34,2.32c3.78,0.35,16.18,38.56,16.89,42.11
		c0.71,3.54,1.59,7.08,1.59,7.08s-0.12,0.83,0.59,1.06c0.71,0.24,20.71,7.27,20.71,7.27s-5.33,2.11-6.84,15.52
		c0,0-21.66-2.43-24.08-3.32c-2.42-0.89-30.09-38.59-30.09-38.59L349.06,205.17z"/>
	<path style="opacity:0.2;fill:#C68216;" d="M285.77,228.84c-0.18-0.37-0.44-0.64-0.84-0.72c-1.77-0.35-33.4-8.61-33.4-8.61
		s-2.48-0.59-10.5-7.43c-8.03-6.84-12.48-12.39-12.48-12.39s1.82-0.66,4.25-1.71c4.89,5.36,16.16,17.34,19.09,17.53
		C255.29,215.7,285.55,221.76,285.77,228.84z"/>
</g>
<g>
	<g>
		<path style="fill:#E4C66E;" d="M457.01,326.71c-0.96-2.6,0.08-5.36,2.75-6.35c2.65-0.98,5.19,0.44,6.16,3.06
			c0.95,2.57-0.08,5.36-2.75,6.34C460.52,330.74,457.97,329.33,457.01,326.71z M463.17,324.44c-0.45-1.23-1.53-2.06-2.58-1.67
			c-1.1,0.41-1.29,1.67-0.83,2.93c0.45,1.23,1.53,2.06,2.58,1.67C463.44,326.95,463.62,325.67,463.17,324.44z M470.59,316.61
			l3.12-1.15l-6.63,23.29l-3.12,1.15L470.59,316.61z M471.74,331.94c-0.96-2.6,0.08-5.36,2.75-6.34c2.65-0.98,5.19,0.44,6.16,3.06
			c0.95,2.57-0.08,5.36-2.75,6.35C475.25,335.97,472.71,334.56,471.74,331.94z M477.9,329.67c-0.45-1.23-1.53-2.06-2.58-1.67
			c-1.1,0.41-1.29,1.67-0.83,2.93c0.45,1.23,1.53,2.06,2.58,1.67C478.17,332.19,478.35,330.9,477.9,329.67z"/>
	</g>
</g>
<g>
	<path style="fill:#DBDFF0;" d="M269.93,88.47V29.83c0-4.99-4.24-9.07-9.42-9.07H86.24c-5.18,0-9.42,4.08-9.42,9.07v58.64
		c0,4.99,4.24,9.07,9.42,9.07h121.94l74.23,36.36l-37.27-36.36h15.36C265.69,97.54,269.93,93.46,269.93,88.47z"/>
	<ellipse style="opacity:0.3;fill:#575BA3;" cx="104.08" cy="46.97" rx="15.05" ry="14.49"/>
	<g style="opacity:0.3;">
		<polygon style="fill:#575BA3;" points="135.36,39.29 137.34,45.15 143.75,45.15 138.56,48.78 140.54,54.64 135.36,51.02 
			130.18,54.64 132.16,48.78 126.97,45.15 133.38,45.15 		"/>
		<polygon style="fill:#575BA3;" points="155.24,39.29 157.22,45.15 163.63,45.15 158.45,48.78 160.43,54.64 155.24,51.02 
			150.06,54.64 152.04,48.78 146.86,45.15 153.26,45.15 		"/>
		<polygon style="fill:#575BA3;" points="175.13,39.29 177.11,45.15 183.51,45.15 178.33,48.78 180.31,54.64 175.13,51.02 
			169.94,54.64 171.92,48.78 166.74,45.15 173.15,45.15 		"/>
		<polygon style="fill:#575BA3;" points="195.01,39.29 196.99,45.15 203.39,45.15 198.21,48.78 200.19,54.64 195.01,51.02 
			189.82,54.64 191.8,48.78 186.62,45.15 193.03,45.15 		"/>
		<polygon style="fill:#575BA3;" points="214.89,39.29 216.87,45.15 223.28,45.15 218.09,48.78 220.07,54.64 214.89,51.02 
			209.71,54.64 211.69,48.78 206.5,45.15 212.91,45.15 		"/>
	</g>
	<path style="opacity:0.3;fill:#575BA3;" d="M258.94,75.3H91.31c-1.25,0-2.28-1.03-2.28-2.28v-1.11c0-1.25,1.03-2.28,2.28-2.28
		h167.63c1.25,0,2.28,1.03,2.28,2.28v1.11C261.22,74.27,260.19,75.3,258.94,75.3z"/>
	<path style="opacity:0.3;fill:#575BA3;" d="M258.94,87.69H91.31c-1.25,0-2.28-1.03-2.28-2.28V84.3c0-1.25,1.03-2.28,2.28-2.28
		h167.63c1.25,0,2.28,1.03,2.28,2.28v1.11C261.22,86.67,260.19,87.69,258.94,87.69z"/>
</g>
</svg>
